<svg width="11" height="7" viewBox="0 0 11 7" fill="none" xmlns="http://www.w3.org/2000/svg">
<path d="M5.92922 6.5555L10.8243 1.66036C10.9376 1.54714 11 1.396 11 1.23485C11 1.07369 10.9376 0.922559 10.8243 0.80934L10.4639 0.448847C10.229 0.214272 9.84733 0.214272 9.61285 0.448847L5.50228 4.55941L1.38715 0.444286C1.27385 0.331067 1.1228 0.268555 0.961731 0.268555C0.800488 0.268555 0.649441 0.331067 0.536044 0.444286L0.17573 0.804779C0.0624218 0.918087 7.05e-09 1.06913 0 1.23029C-7.04e-09 1.39144 0.0624218 1.54258 0.17573 1.6558L5.07525 6.5555C5.18892 6.66898 5.34068 6.73132 5.50201 6.73096C5.66397 6.73132 5.81564 6.66898 5.92922 6.5555Z" fill="black"/>
</svg>
