<svg width="48" height="13" viewBox="0 0 48 13" fill="none" xmlns="http://www.w3.org/2000/svg">
<path d="M45.3336 5.99274L39.9934 0.207681C39.8699 0.0737718 39.705 0 39.5292 0C39.3534 0 39.1886 0.0737718 39.065 0.207681L38.6718 0.633613C38.4159 0.911155 38.4159 1.36224 38.6718 1.63936L43.156 6.4973L38.6668 11.3606C38.5433 11.4945 38.4751 11.6731 38.4751 11.8634C38.4751 12.054 38.5433 12.2325 38.6668 12.3665L39.0601 12.7923C39.1837 12.9262 39.3485 13 39.5243 13C39.7001 13 39.8649 12.9262 39.9885 12.7923L45.3336 7.00198C45.4574 6.86764 45.5254 6.68829 45.525 6.49762C45.5254 6.30622 45.4574 6.12697 45.3336 5.99274Z" fill="black"/>
<path fill-rule="evenodd" clip-rule="evenodd" d="M-8.74228e-08 6.22266C-3.91405e-08 5.67037 0.447715 5.22266 1 5.22266L43.4444 5.22266C43.9967 5.22266 44.4444 5.67038 44.4444 6.22266C44.4444 6.77494 43.9967 7.22266 43.4444 7.22266L1 7.22266C0.447715 7.22266 -1.35705e-07 6.77494 -8.74228e-08 6.22266Z" fill="black"/>
</svg>
