<svg xmlns="http://www.w3.org/2000/svg" version="1.1" xmlns:xlink="http://www.w3.org/1999/xlink" xmlns:svgjs="http://svgjs.com/svgjs" width="512" height="512" x="0" y="0" viewBox="0 0 512 512" style="enable-background:new 0 0 512 512" xml:space="preserve" class="hovered-paths"><g><path xmlns="http://www.w3.org/2000/svg" d="m368.467 512c-89.756 0-185.605-32.981-260.547-107.921-74.817-74.818-107.92-170.603-107.92-260.546 0-79.269 64.132-143.533 143.533-143.533 6.134 0 11.649 3.734 13.927 9.429l64.267 160.667c3.077 7.692-.664 16.421-8.355 19.498l-70.597 28.238c4.994 81.218 70.188 146.408 151.393 151.395l28.239-70.597c3.07-7.679 11.796-11.434 19.498-8.356l160.665 64.266c5.695 2.278 9.43 7.793 9.43 13.927 0 79.269-64.132 143.533-143.533 143.533z" fill="#000000" data-original="#000000" class="hovered-path"></path></g></svg>