<svg width="155" height="49" viewBox="0 0 155 49" fill="none" xmlns="http://www.w3.org/2000/svg">
<g clip-path="url(#clip0_520_7)">
<path d="M33.2299 0H11.3681C5.24683 0 0 5.25714 0 11.8286V14.4571H13.5543V7.00952H19.8942V14.2381H28.4203V20.8095H20.1128V31.7619C20.1128 32.8571 20.9873 33.7333 21.8618 33.7333C22.299 33.7333 22.7362 33.5143 23.1735 33.0762L23.8293 32.419L28.4203 37.019L27.7645 37.6762C26.2341 39.6476 24.048 40.5238 21.8618 40.5238C17.2708 40.5238 13.5543 36.8 13.5543 32.2V21.2476H0V34.3905C0 40.9619 5.24683 46.219 11.5867 46.219H33.4485C39.7884 46.219 45.0353 40.9619 45.0353 34.3905V11.8286C44.8166 5.25714 39.7884 0 33.2299 0ZM34.5416 15.3333C32.1368 15.3333 29.9506 13.3619 29.9506 10.7333C29.9506 8.10476 31.9182 6.13333 34.5416 6.13333C36.9464 6.13333 39.1326 8.10476 39.1326 10.7333C38.914 13.1429 36.9464 15.3333 34.5416 15.3333Z" fill="#E43D30"/>
<path d="M54.873 4.59961V12.4853H61.8688V31.7615H70.6135V12.2663H77.6093V4.59961H54.873Z" fill="white"/>
<path d="M88.7588 24.5329V21.2472H98.5966V14.6758H88.7588V11.6091H100.127V4.59961H80.2327V31.5425H100.564V24.5329H88.7588Z" fill="white"/>
<path d="M114.556 23.8758L124.394 10.2948V4.59961H103.188V12.4853H112.37L102.532 26.0663V31.7615H124.831V23.8758H114.556Z" fill="white"/>
<path d="M145.162 4.59961H135.762L125.924 31.5425H134.669L135.762 28.0377H144.944L146.037 31.5425H154.781L145.162 4.59961ZM137.729 21.4663L139.478 15.771C139.697 14.6758 139.915 13.5806 140.134 12.2663C140.353 13.5806 140.571 14.6758 140.79 15.771L142.539 21.4663H137.729Z" fill="white"/>
</g>
<path d="M62.675 46.1875C63.3458 46.1875 63.9208 46.0313 64.4 45.7187C64.8833 45.4021 65.2521 44.9437 65.5063 44.3437L64.5813 44.0687C64.2396 44.8937 63.6042 45.3062 62.675 45.3062C61.95 45.3062 61.4042 45.0625 61.0375 44.575C60.6708 44.0833 60.4833 43.4333 60.475 42.625C60.4833 41.8375 60.6646 41.1937 61.0188 40.6937C61.3771 40.1937 61.9292 39.9437 62.675 39.9437C63.1167 39.9437 63.5083 40.0562 63.85 40.2812C64.1958 40.5021 64.4479 40.8146 64.6063 41.2187L65.5063 40.9312C65.3188 40.3521 64.9708 39.8958 64.4625 39.5625C63.9583 39.2292 63.3646 39.0625 62.6813 39.0625C62.0104 39.0625 61.4396 39.2125 60.9688 39.5125C60.4979 39.8083 60.1375 40.225 59.8875 40.7625C59.6375 41.2958 59.5083 41.9167 59.5 42.625C59.5083 43.3167 59.6333 43.9312 59.875 44.4687C60.1208 45.0062 60.4792 45.4271 60.95 45.7312C61.4208 46.0354 61.9958 46.1875 62.675 46.1875ZM69.2926 46H70.2113V43.0625H74.0176V46H74.9363V39.25H74.0176V42.1812H70.2113V39.25H69.2926V46ZM78.6153 46.1875C79.7945 46.1875 80.6507 45.7521 81.1841 44.8812V46H82.0028V41.8062C82.0028 41.5562 81.9903 41.3104 81.9653 41.0687C81.9403 40.8271 81.8862 40.6083 81.8028 40.4125C81.6237 39.975 81.3174 39.6417 80.8841 39.4125C80.4549 39.1792 79.932 39.0625 79.3153 39.0625C78.5737 39.0625 77.9695 39.2292 77.5028 39.5625C77.0362 39.8958 76.7237 40.3646 76.5653 40.9687L77.4591 41.2312C77.5882 40.7812 77.8112 40.4521 78.1278 40.2437C78.4487 40.0354 78.8403 39.9312 79.3028 39.9312C79.9445 39.9312 80.4028 40.0812 80.6778 40.3812C80.9528 40.6771 81.0945 41.1292 81.1028 41.7375C80.8028 41.7792 80.4716 41.8229 80.1091 41.8687C79.7507 41.9146 79.3903 41.9667 79.0278 42.025C78.6653 42.0833 78.332 42.15 78.0278 42.225C77.5237 42.3583 77.1112 42.5812 76.7903 42.8937C76.4695 43.2021 76.3091 43.6333 76.3091 44.1875C76.3091 44.5458 76.3945 44.8771 76.5653 45.1812C76.7362 45.4854 76.9924 45.7292 77.3341 45.9125C77.6799 46.0958 78.107 46.1875 78.6153 46.1875ZM78.7216 45.3937C78.3591 45.3937 78.0674 45.3354 77.8466 45.2188C77.6299 45.0979 77.4716 44.9458 77.3716 44.7625C77.2757 44.575 77.2278 44.3833 77.2278 44.1875C77.2278 43.8208 77.3507 43.5458 77.5966 43.3625C77.8424 43.1792 78.1091 43.0458 78.3966 42.9625C78.7674 42.8625 79.1987 42.7812 79.6903 42.7187C80.182 42.6562 80.6487 42.5979 81.0903 42.5437C81.0903 42.6979 81.0841 42.875 81.0716 43.075C81.0632 43.2708 81.0403 43.4521 81.0028 43.6187C80.9153 44.1271 80.6737 44.55 80.2778 44.8875C79.8862 45.225 79.3674 45.3937 78.7216 45.3937ZM83.6236 46H84.5174V41.2125L86.7861 46H87.3674L89.6361 41.2125V46H90.5236V39.25H89.7111L87.0736 44.775L84.4424 39.25H83.6236V46ZM97.635 39.25H96.8662L93.16 44.4625V39.25H92.2662V46H93.0412L96.7412 40.7437V46H97.635V39.25ZM101.885 46H102.804V43.0625H106.61V46H107.529V39.25H106.61V42.1812H102.804V39.25H101.885V46ZM111.208 46.1875C112.387 46.1875 113.244 45.7521 113.777 44.8812V46H114.596V41.8062C114.596 41.5562 114.583 41.3104 114.558 41.0687C114.533 40.8271 114.479 40.6083 114.396 40.4125C114.216 39.975 113.91 39.6417 113.477 39.4125C113.048 39.1792 112.525 39.0625 111.908 39.0625C111.166 39.0625 110.562 39.2292 110.096 39.5625C109.629 39.8958 109.316 40.3646 109.158 40.9687L110.052 41.2312C110.181 40.7812 110.404 40.4521 110.721 40.2437C111.041 40.0354 111.433 39.9312 111.896 39.9312C112.537 39.9312 112.996 40.0812 113.271 40.3812C113.546 40.6771 113.687 41.1292 113.696 41.7375C113.396 41.7792 113.064 41.8229 112.702 41.8687C112.344 41.9146 111.983 41.9667 111.621 42.025C111.258 42.0833 110.925 42.15 110.621 42.225C110.116 42.3583 109.704 42.5812 109.383 42.8937C109.062 43.2021 108.902 43.6333 108.902 44.1875C108.902 44.5458 108.987 44.8771 109.158 45.1812C109.329 45.4854 109.585 45.7292 109.927 45.9125C110.273 46.0958 110.7 46.1875 111.208 46.1875ZM111.314 45.3937C110.952 45.3937 110.66 45.3354 110.439 45.2188C110.223 45.0979 110.064 44.9458 109.964 44.7625C109.869 44.575 109.821 44.3833 109.821 44.1875C109.821 43.8208 109.944 43.5458 110.189 43.3625C110.435 43.1792 110.702 43.0458 110.989 42.9625C111.36 42.8625 111.791 42.7812 112.283 42.7187C112.775 42.6562 113.241 42.5979 113.683 42.5437C113.683 42.6979 113.677 42.875 113.664 43.075C113.656 43.2708 113.633 43.4521 113.596 43.6187C113.508 44.1271 113.266 44.55 112.871 44.8875C112.479 45.225 111.96 45.3937 111.314 45.3937ZM115.723 47.5H116.604V46H121.566V47.5H122.454V45.2125H121.804V39.25H117.341C117.312 39.9583 117.281 40.5771 117.248 41.1062C117.214 41.6312 117.175 42.0979 117.129 42.5062C117.083 42.9146 117.025 43.2958 116.954 43.65C116.85 44.1958 116.714 44.5937 116.548 44.8437C116.381 45.0896 116.106 45.2125 115.723 45.2125V47.5ZM117.279 45.2125C117.425 45.075 117.533 44.9 117.604 44.6875C117.679 44.475 117.748 44.2187 117.81 43.9187C117.885 43.6104 117.946 43.2333 117.991 42.7875C118.041 42.3417 118.081 41.8771 118.11 41.3937C118.143 40.9104 118.171 40.4583 118.191 40.0375H120.891V45.2125H117.279ZM126.562 46.1875C127.216 46.1875 127.801 46.0271 128.318 45.7062C128.839 45.3854 129.233 44.9292 129.499 44.3375L128.643 44.0062C128.214 44.8729 127.508 45.3062 126.524 45.3062C125.849 45.3062 125.32 45.0958 124.937 44.675C124.558 44.2542 124.349 43.6562 124.312 42.8812H129.631C129.664 41.6896 129.403 40.7562 128.849 40.0812C128.299 39.4021 127.524 39.0625 126.524 39.0625C125.874 39.0625 125.31 39.2083 124.831 39.5C124.356 39.7917 123.987 40.2062 123.724 40.7437C123.462 41.2812 123.331 41.9187 123.331 42.6562C123.331 43.3687 123.462 43.9896 123.724 44.5187C123.991 45.0479 124.366 45.4583 124.849 45.75C125.337 46.0417 125.908 46.1875 126.562 46.1875ZM126.549 39.9062C127.82 39.9062 128.526 40.6417 128.668 42.1125H124.331C124.401 41.4 124.626 40.8542 125.006 40.475C125.385 40.0958 125.899 39.9062 126.549 39.9062ZM130.023 46H131.092L133.842 42.6687V46H134.692V42.6687L137.436 46H138.505L135.655 42.625L138.386 39.25H137.355L134.692 42.5812V39.25H133.842V42.5812L131.18 39.25H130.142L132.873 42.625L130.023 46ZM139.495 46H140.414V43.0625H144.22V46H145.139V39.25H144.22V42.1812H140.414V39.25H139.495V46ZM149.705 46.1875C150.372 46.1875 150.943 46.0375 151.418 45.7375C151.897 45.4375 152.264 45.0208 152.518 44.4875C152.776 43.95 152.905 43.3271 152.905 42.6187C152.905 41.9229 152.778 41.3083 152.524 40.775C152.274 40.2375 151.91 39.8187 151.43 39.5187C150.955 39.2146 150.38 39.0625 149.705 39.0625C149.047 39.0625 148.478 39.2125 147.999 39.5125C147.524 39.8083 147.158 40.2229 146.899 40.7562C146.641 41.2896 146.512 41.9104 146.512 42.6187C146.512 43.3146 146.637 43.9312 146.887 44.4687C147.141 45.0062 147.505 45.4271 147.98 45.7312C148.46 46.0354 149.035 46.1875 149.705 46.1875ZM149.705 45.3062C148.976 45.3062 148.424 45.0625 148.049 44.575C147.674 44.0833 147.487 43.4312 147.487 42.6187C147.487 41.8312 147.668 41.1896 148.03 40.6937C148.393 40.1937 148.951 39.9437 149.705 39.9437C150.451 39.9437 151.008 40.1875 151.374 40.675C151.745 41.1583 151.93 41.8062 151.93 42.6187C151.93 43.4146 151.747 44.0625 151.38 44.5625C151.014 45.0583 150.455 45.3062 149.705 45.3062Z" fill="white"/>
<defs>
<clipPath id="clip0_520_7">
<rect width="155" height="46" fill="white"/>
</clipPath>
</defs>
</svg>
