<svg width="107" height="33" viewBox="0 0 107 33" fill="none" xmlns="http://www.w3.org/2000/svg">
<g clip-path="url(#clip0_201_326)">
<path d="M0 0C2.9 0 13.1 0 17.7 0C24.4 0 27.8 2.6 27.8 8.4C27.8 14.5 23.9 15.1 22.6 15.5C23.7 15.9 28.6 17.3 28.6 23.6C28.6 29.4 23.8 32.4 19.4 32.4C15.5 32.4 3 32.4 3 32.4C3 32.4 3 8.1 3 5.8C3 0.8 0.7 0.3 0 0ZM11.4 12.6C11.4 12.6 15.8 12.6 16.7 12.6C18 12.6 19.5 11.7 19.5 9.4C19.5 7.2 18.5 6.2 16.3 6.2C15.5 6.2 11.4 6.2 11.4 6.2V12.6ZM11.4 26.1C11.4 26.1 16 26.1 17 26.1C19.1 26.1 20.1 24.6 20.1 22.6C20.1 21 19.5 18.9 16.4 18.9C15.6 18.9 11.5 18.9 11.5 18.9V26.1H11.4Z" fill="#626262"/>
<path d="M54.5 32.5L51.8 25.3H39.2C39.2 25.3 38.4 27.7 38.2 28.3C37.4 30.7 39.5 32.4 39.6 32.5C37.6 32.5 28.5 32.5 28.5 32.5C28.5 32.5 37 6.4 37.6 4.7C38.9 1 37 0.2 36.5 0C39.2 0 50.4 0 50.4 0L62.8 32.5H54.5ZM41.3 19H49.3L45 7.6L41.3 19Z" fill="#626262"/>
<path d="M93.3 0H78.7C81 0.7 80.9 3.1 79.7 4.6C79.5 4.8 77.7 6.9 75.2 9.9L69.4 0H58.4L69.7 16.2C63.2 23.9 55.8 32.5 55.8 32.5C55.8 32.5 68 32.5 70.1 32.5C69.8 32.2 67.5 30.2 69.6 27.7C69.8 27.5 72.2 24.7 75.4 20.9L82.1 32.5H93.2L80.8 14.6C87 7.5 93.3 0 93.3 0Z" fill="#626262"/>
<path d="M94.2 0H106.2V32.5H97C97 32.5 97 8.1 97 5.9C97 0.8 94.9 0.3 94.2 0Z" fill="#626262"/>
</g>
<defs>
<clipPath id="clip0_201_326">
<rect width="106.2" height="32.5" fill="white"/>
</clipPath>
</defs>
</svg>
