<svg width="490" height="283" viewBox="0 0 490 283" fill="none" xmlns="http://www.w3.org/2000/svg">
<path d="M15.1008 12.5463C15.1008 14.0014 14.0078 15.0927 12.5504 15.0927C11.093 15.0927 10 14.0014 10 12.5463C10 11.0913 11.093 10 12.5504 10C14.0078 10 15.1008 11.0913 15.1008 12.5463ZM38.4186 10C36.9612 10 35.8682 11.0913 35.8682 12.5463C35.8682 14.0014 36.9612 15.0927 38.4186 15.0927C39.876 15.0927 40.969 14.0014 40.969 12.5463C40.969 11.0913 39.876 10 38.4186 10ZM64.2868 10C62.8295 10 61.7364 11.0913 61.7364 12.5463C61.7364 14.0014 62.8295 15.0927 64.2868 15.0927C65.7442 15.0927 66.8372 14.0014 66.8372 12.5463C66.8372 11.0913 65.562 10 64.2868 10ZM89.9729 10C88.5155 10 87.4225 11.0913 87.4225 12.5463C87.4225 14.0014 88.5155 15.0927 89.9729 15.0927C91.4302 15.0927 92.5233 14.0014 92.5233 12.5463C92.5233 11.0913 91.4302 10 89.9729 10ZM115.841 10C114.384 10 113.291 11.0913 113.291 12.5463C113.291 14.0014 114.384 15.0927 115.841 15.0927C117.298 15.0927 118.391 14.0014 118.391 12.5463C118.391 11.0913 117.298 10 115.841 10ZM141.709 10C140.252 10 139.159 11.0913 139.159 12.5463C139.159 14.0014 140.252 15.0927 141.709 15.0927C143.167 15.0927 144.26 14.0014 144.26 12.5463C144.26 11.0913 143.167 10 141.709 10ZM167.578 10C166.12 10 164.845 11.0913 164.845 12.5463C164.845 14.0014 165.938 15.0927 167.395 15.0927C168.853 15.0927 169.946 14.0014 169.946 12.5463C169.946 11.0913 168.853 10 167.578 10ZM193.264 10C191.806 10 190.713 11.0913 190.713 12.5463C190.713 14.0014 191.806 15.0927 193.264 15.0927C194.721 15.0927 195.814 14.0014 195.814 12.5463C195.814 11.0913 194.721 10 193.264 10ZM219.132 10C217.674 10 216.581 11.0913 216.581 12.5463C216.581 14.0014 217.674 15.0927 219.132 15.0927C220.589 15.0927 221.682 14.0014 221.682 12.5463C221.682 11.0913 220.589 10 219.132 10ZM245 10C243.543 10 242.45 11.0913 242.45 12.5463C242.45 14.0014 243.543 15.0927 245 15.0927C246.457 15.0927 247.55 14.0014 247.55 12.5463C247.55 11.0913 246.457 10 245 10ZM270.686 10C269.229 10 268.136 11.0913 268.136 12.5463C268.136 14.0014 269.229 15.0927 270.686 15.0927C272.143 15.0927 273.236 14.0014 273.236 12.5463C273.236 11.0913 272.143 10 270.686 10ZM296.554 10C295.097 10 294.004 11.0913 294.004 12.5463C294.004 14.0014 295.097 15.0927 296.554 15.0927C298.012 15.0927 299.105 14.0014 299.105 12.5463C299.105 11.0913 298.012 10 296.554 10ZM322.422 10C320.965 10 319.872 11.0913 319.872 12.5463C319.872 14.0014 320.965 15.0927 322.422 15.0927C323.88 15.0927 324.973 14.0014 324.973 12.5463C324.973 11.0913 323.88 10 322.422 10ZM348.291 10C346.833 10 345.74 11.0913 345.74 12.5463C345.74 14.0014 346.833 15.0927 348.291 15.0927C349.748 15.0927 350.841 14.0014 350.841 12.5463C350.841 11.0913 349.748 10 348.291 10ZM373.977 10C372.519 10 371.426 11.0913 371.426 12.5463C371.426 14.0014 372.519 15.0927 373.977 15.0927C375.434 15.0927 376.527 14.0014 376.527 12.5463C376.527 11.0913 375.434 10 373.977 10ZM399.845 10C398.388 10 397.295 11.0913 397.295 12.5463C397.295 14.0014 398.388 15.0927 399.845 15.0927C401.302 15.0927 402.395 14.0014 402.395 12.5463C402.395 11.0913 401.302 10 399.845 10ZM425.713 10C424.256 10 423.163 11.0913 423.163 12.5463C423.163 14.0014 424.256 15.0927 425.713 15.0927C427.171 15.0927 428.264 14.0014 428.264 12.5463C428.264 11.0913 427.171 10 425.713 10ZM451.581 10C450.124 10 449.031 11.0913 449.031 12.5463C449.031 14.0014 450.124 15.0927 451.581 15.0927C453.039 15.0927 454.132 14.0014 454.132 12.5463C454.132 11.0913 452.857 10 451.581 10ZM477.267 10C475.81 10 474.717 11.0913 474.717 12.5463C474.717 14.0014 475.81 15.0927 477.267 15.0927C478.725 15.0927 479.818 14.0014 479.818 12.5463C479.818 11.0913 478.725 10 477.267 10ZM12.5504 35.8271C11.093 35.8271 10 36.9184 10 38.3734C10 39.8285 11.093 40.9198 12.5504 40.9198C14.0078 40.9198 15.1008 39.8285 15.1008 38.3734C15.1008 36.9184 14.0078 35.8271 12.5504 35.8271ZM38.4186 35.8271C36.9612 35.8271 35.8682 36.9184 35.8682 38.3734C35.8682 39.8285 36.9612 40.9198 38.4186 40.9198C39.876 40.9198 40.969 39.8285 40.969 38.3734C40.969 36.9184 39.876 35.8271 38.4186 35.8271ZM64.2868 35.8271C62.8295 35.8271 61.7364 36.9184 61.7364 38.3734C61.7364 39.8285 62.8295 40.9198 64.2868 40.9198C65.7442 40.9198 66.8372 39.8285 66.8372 38.3734C66.8372 36.9184 65.562 35.8271 64.2868 35.8271ZM89.9729 35.8271C88.5155 35.8271 87.4225 36.9184 87.4225 38.3734C87.4225 39.8285 88.5155 40.9198 89.9729 40.9198C91.4302 40.9198 92.5233 39.8285 92.5233 38.3734C92.5233 36.9184 91.4302 35.8271 89.9729 35.8271ZM115.841 35.8271C114.384 35.8271 113.291 36.9184 113.291 38.3734C113.291 39.8285 114.384 40.9198 115.841 40.9198C117.298 40.9198 118.391 39.8285 118.391 38.3734C118.391 36.9184 117.298 35.8271 115.841 35.8271ZM141.709 35.8271C140.252 35.8271 139.159 36.9184 139.159 38.3734C139.159 39.8285 140.252 40.9198 141.709 40.9198C143.167 40.9198 144.26 39.8285 144.26 38.3734C144.26 36.9184 143.167 35.8271 141.709 35.8271ZM167.578 35.8271C166.12 35.8271 165.027 36.9184 165.027 38.3734C165.027 39.8285 166.12 40.9198 167.578 40.9198C169.035 40.9198 170.128 39.8285 170.128 38.3734C170.128 36.9184 168.853 35.8271 167.578 35.8271ZM193.264 35.8271C191.806 35.8271 190.713 36.9184 190.713 38.3734C190.713 39.8285 191.806 40.9198 193.264 40.9198C194.721 40.9198 195.814 39.8285 195.814 38.3734C195.814 36.9184 194.721 35.8271 193.264 35.8271ZM219.132 35.8271C217.674 35.8271 216.581 36.9184 216.581 38.3734C216.581 39.8285 217.674 40.9198 219.132 40.9198C220.589 40.9198 221.682 39.8285 221.682 38.3734C221.682 36.9184 220.589 35.8271 219.132 35.8271ZM245 35.8271C243.543 35.8271 242.45 36.9184 242.45 38.3734C242.45 39.8285 243.543 40.9198 245 40.9198C246.457 40.9198 247.55 39.8285 247.55 38.3734C247.55 36.9184 246.457 35.8271 245 35.8271ZM270.686 35.8271C269.229 35.8271 268.136 36.9184 268.136 38.3734C268.136 39.8285 269.229 40.9198 270.686 40.9198C272.143 40.9198 273.236 39.8285 273.236 38.3734C273.236 36.9184 272.143 35.8271 270.686 35.8271ZM296.554 35.8271C295.097 35.8271 294.004 36.9184 294.004 38.3734C294.004 39.8285 295.097 40.9198 296.554 40.9198C298.012 40.9198 299.105 39.8285 299.105 38.3734C299.105 36.9184 298.012 35.8271 296.554 35.8271ZM322.422 35.8271C320.965 35.8271 319.872 36.9184 319.872 38.3734C319.872 39.8285 320.965 40.9198 322.422 40.9198C323.88 40.9198 324.973 39.8285 324.973 38.3734C324.973 36.9184 323.88 35.8271 322.422 35.8271ZM348.291 35.8271C346.833 35.8271 345.74 36.9184 345.74 38.3734C345.74 39.8285 346.833 40.9198 348.291 40.9198C349.748 40.9198 350.841 39.8285 350.841 38.3734C350.841 36.9184 349.748 35.8271 348.291 35.8271ZM373.977 35.8271C372.519 35.8271 371.426 36.9184 371.426 38.3734C371.426 39.8285 372.519 40.9198 373.977 40.9198C375.434 40.9198 376.527 39.8285 376.527 38.3734C376.527 36.9184 375.434 35.8271 373.977 35.8271ZM399.845 35.8271C398.388 35.8271 397.295 36.9184 397.295 38.3734C397.295 39.8285 398.388 40.9198 399.845 40.9198C401.302 40.9198 402.395 39.8285 402.395 38.3734C402.395 36.9184 401.302 35.8271 399.845 35.8271ZM425.713 35.8271C424.256 35.8271 423.163 36.9184 423.163 38.3734C423.163 39.8285 424.256 40.9198 425.713 40.9198C427.171 40.9198 428.264 39.8285 428.264 38.3734C428.264 36.9184 427.171 35.8271 425.713 35.8271ZM451.581 35.8271C450.124 35.8271 449.031 36.9184 449.031 38.3734C449.031 39.8285 450.124 40.9198 451.581 40.9198C453.039 40.9198 454.132 39.8285 454.132 38.3734C454.132 36.9184 452.857 35.8271 451.581 35.8271ZM477.267 35.8271C475.81 35.8271 474.717 36.9184 474.717 38.3734C474.717 39.8285 475.81 40.9198 477.267 40.9198C478.725 40.9198 479.818 39.8285 479.818 38.3734C479.818 36.9184 478.725 35.8271 477.267 35.8271ZM12.5504 61.4723C11.093 61.4723 10 62.7455 10 64.2006C10 65.6556 11.093 66.7469 12.5504 66.7469C14.0078 66.7469 15.1008 65.6556 15.1008 64.2006C15.1008 62.7455 14.0078 61.4723 12.5504 61.4723ZM38.4186 61.4723C36.9612 61.4723 35.8682 62.5636 35.8682 64.0187C35.8682 65.4737 36.9612 66.565 38.4186 66.565C39.876 66.565 40.969 65.4737 40.969 64.0187C40.969 62.7455 39.876 61.4723 38.4186 61.4723ZM64.2868 61.4723C62.8295 61.4723 61.7364 62.5636 61.7364 64.0187C61.7364 65.4737 62.8295 66.565 64.2868 66.565C65.7442 66.565 66.8372 65.4737 66.8372 64.0187C66.8372 62.7455 65.562 61.4723 64.2868 61.4723ZM89.9729 61.4723C88.5155 61.4723 87.4225 62.5636 87.4225 64.0187C87.4225 65.4737 88.5155 66.565 89.9729 66.565C91.4302 66.565 92.5233 65.4737 92.5233 64.0187C92.7054 62.7455 91.4302 61.4723 89.9729 61.4723ZM115.841 61.4723C114.384 61.4723 113.291 62.5636 113.291 64.0187C113.291 65.4737 114.384 66.565 115.841 66.565C117.298 66.565 118.391 65.4737 118.391 64.0187C118.391 62.7455 117.298 61.4723 115.841 61.4723ZM141.709 61.4723C140.252 61.4723 139.159 62.5636 139.159 64.0187C139.159 65.4737 140.252 66.565 141.709 66.565C143.167 66.565 144.26 65.4737 144.26 64.0187C144.26 62.7455 143.167 61.4723 141.709 61.4723ZM167.578 61.4723C166.12 61.4723 165.027 62.5636 165.027 64.0187C165.027 65.4737 166.12 66.565 167.578 66.565C169.035 66.565 170.128 65.4737 170.128 64.0187C170.128 62.7455 168.853 61.4723 167.578 61.4723ZM193.264 61.4723C191.806 61.4723 190.713 62.5636 190.713 64.0187C190.713 65.4737 191.806 66.565 193.264 66.565C194.721 66.565 195.814 65.4737 195.814 64.0187C195.814 62.7455 194.721 61.4723 193.264 61.4723ZM219.132 61.4723C217.674 61.4723 216.581 62.5636 216.581 64.0187C216.581 65.4737 217.674 66.565 219.132 66.565C220.589 66.565 221.682 65.4737 221.682 64.0187C221.682 62.7455 220.589 61.4723 219.132 61.4723ZM245 61.4723C243.543 61.4723 242.45 62.5636 242.45 64.0187C242.45 65.4737 243.543 66.565 245 66.565C246.457 66.565 247.55 65.4737 247.55 64.0187C247.55 62.7455 246.457 61.4723 245 61.4723ZM270.686 61.4723C269.229 61.4723 268.136 62.5636 268.136 64.0187C268.136 65.4737 269.229 66.565 270.686 66.565C272.143 66.565 273.236 65.4737 273.236 64.0187C273.419 62.7455 272.143 61.4723 270.686 61.4723ZM296.554 61.4723C295.097 61.4723 294.004 62.5636 294.004 64.0187C294.004 65.4737 295.097 66.565 296.554 66.565C298.012 66.565 299.105 65.4737 299.105 64.0187C299.105 62.7455 298.012 61.4723 296.554 61.4723ZM322.422 61.4723C320.965 61.4723 319.872 62.5636 319.872 64.0187C319.872 65.4737 320.965 66.565 322.422 66.565C323.88 66.565 324.973 65.4737 324.973 64.0187C324.973 62.7455 323.88 61.4723 322.422 61.4723ZM348.291 61.4723C346.833 61.4723 345.74 62.5636 345.74 64.0187C345.74 65.4737 346.833 66.565 348.291 66.565C349.748 66.565 350.841 65.4737 350.841 64.0187C350.841 62.7455 349.748 61.4723 348.291 61.4723ZM373.977 61.4723C372.519 61.4723 371.426 62.5636 371.426 64.0187C371.426 65.4737 372.519 66.565 373.977 66.565C375.434 66.565 376.527 65.4737 376.527 64.0187C376.709 62.7455 375.434 61.4723 373.977 61.4723ZM399.845 61.4723C398.388 61.4723 397.295 62.5636 397.295 64.0187C397.295 65.4737 398.388 66.565 399.845 66.565C401.302 66.565 402.395 65.4737 402.395 64.0187C402.395 62.7455 401.302 61.4723 399.845 61.4723ZM425.713 61.4723C424.256 61.4723 423.163 62.5636 423.163 64.0187C423.163 65.4737 424.256 66.565 425.713 66.565C427.171 66.565 428.264 65.4737 428.264 64.0187C428.264 62.7455 427.171 61.4723 425.713 61.4723ZM451.581 61.4723C450.124 61.4723 449.031 62.5636 449.031 64.0187C449.031 65.4737 450.124 66.565 451.581 66.565C453.039 66.565 454.132 65.4737 454.132 64.0187C454.132 62.7455 452.857 61.4723 451.581 61.4723ZM477.267 61.4723C475.81 61.4723 474.717 62.5636 474.717 64.0187C474.717 65.4737 475.81 66.565 477.267 66.565C478.725 66.565 479.818 65.4737 479.818 64.0187C480 62.7455 478.725 61.4723 477.267 61.4723ZM12.5504 87.2994C11.093 87.2994 10 88.3907 10 89.8458C10 91.3008 11.093 92.3921 12.5504 92.3921C14.0078 92.3921 15.1008 91.3008 15.1008 89.8458C15.1008 88.3907 14.0078 87.2994 12.5504 87.2994ZM38.4186 87.2994C36.9612 87.2994 35.8682 88.3907 35.8682 89.8458C35.8682 91.3008 36.9612 92.3921 38.4186 92.3921C39.876 92.3921 40.969 91.3008 40.969 89.8458C40.969 88.3907 39.876 87.2994 38.4186 87.2994ZM64.2868 87.2994C62.8295 87.2994 61.7364 88.3907 61.7364 89.8458C61.7364 91.3008 62.8295 92.3921 64.2868 92.3921C65.7442 92.3921 66.8372 91.3008 66.8372 89.8458C66.8372 88.3907 65.562 87.2994 64.2868 87.2994ZM89.9729 87.2994C88.5155 87.2994 87.4225 88.3907 87.4225 89.8458C87.4225 91.3008 88.5155 92.3921 89.9729 92.3921C91.4302 92.3921 92.5233 91.3008 92.5233 89.8458C92.5233 88.3907 91.4302 87.2994 89.9729 87.2994ZM115.841 87.2994C114.384 87.2994 113.291 88.3907 113.291 89.8458C113.291 91.3008 114.384 92.3921 115.841 92.3921C117.298 92.3921 118.391 91.3008 118.391 89.8458C118.391 88.3907 117.298 87.2994 115.841 87.2994ZM141.709 87.2994C140.252 87.2994 139.159 88.3907 139.159 89.8458C139.159 91.3008 140.252 92.3921 141.709 92.3921C143.167 92.3921 144.26 91.3008 144.26 89.8458C144.26 88.3907 143.167 87.2994 141.709 87.2994ZM167.578 87.2994C166.12 87.2994 165.027 88.3907 165.027 89.8458C165.027 91.3008 166.12 92.3921 167.578 92.3921C169.035 92.3921 170.128 91.3008 170.128 89.8458C170.128 88.3907 168.853 87.2994 167.578 87.2994ZM193.264 87.2994C191.806 87.2994 190.713 88.3907 190.713 89.8458C190.713 91.3008 191.806 92.3921 193.264 92.3921C194.721 92.3921 195.814 91.3008 195.814 89.8458C195.814 88.3907 194.721 87.2994 193.264 87.2994ZM219.132 87.2994C217.674 87.2994 216.581 88.3907 216.581 89.8458C216.581 91.3008 217.674 92.3921 219.132 92.3921C220.589 92.3921 221.682 91.3008 221.682 89.8458C221.682 88.3907 220.589 87.2994 219.132 87.2994ZM245 87.2994C243.543 87.2994 242.45 88.3907 242.45 89.8458C242.45 91.3008 243.543 92.3921 245 92.3921C246.457 92.3921 247.55 91.3008 247.55 89.8458C247.55 88.3907 246.457 87.2994 245 87.2994ZM270.686 87.2994C269.229 87.2994 268.136 88.3907 268.136 89.8458C268.136 91.3008 269.229 92.3921 270.686 92.3921C272.143 92.3921 273.236 91.3008 273.236 89.8458C273.236 88.3907 272.143 87.2994 270.686 87.2994ZM296.554 87.2994C295.097 87.2994 294.004 88.3907 294.004 89.8458C294.004 91.3008 295.097 92.3921 296.554 92.3921C298.012 92.3921 299.105 91.3008 299.105 89.8458C299.105 88.3907 298.012 87.2994 296.554 87.2994ZM322.422 87.2994C320.965 87.2994 319.872 88.3907 319.872 89.8458C319.872 91.3008 320.965 92.3921 322.422 92.3921C323.88 92.3921 324.973 91.3008 324.973 89.8458C324.973 88.3907 323.88 87.2994 322.422 87.2994ZM348.291 87.2994C346.833 87.2994 345.74 88.3907 345.74 89.8458C345.74 91.3008 346.833 92.3921 348.291 92.3921C349.748 92.3921 350.841 91.3008 350.841 89.8458C350.841 88.3907 349.748 87.2994 348.291 87.2994ZM373.977 87.2994C372.519 87.2994 371.426 88.3907 371.426 89.8458C371.426 91.3008 372.519 92.3921 373.977 92.3921C375.434 92.3921 376.527 91.3008 376.527 89.8458C376.527 88.3907 375.434 87.2994 373.977 87.2994ZM399.845 87.2994C398.388 87.2994 397.295 88.3907 397.295 89.8458C397.295 91.3008 398.388 92.3921 399.845 92.3921C401.302 92.3921 402.395 91.3008 402.395 89.8458C402.395 88.3907 401.302 87.2994 399.845 87.2994ZM425.713 87.2994C424.256 87.2994 423.163 88.3907 423.163 89.8458C423.163 91.3008 424.256 92.3921 425.713 92.3921C427.171 92.3921 428.264 91.3008 428.264 89.8458C428.264 88.3907 427.171 87.2994 425.713 87.2994ZM451.581 87.2994C450.124 87.2994 449.031 88.3907 449.031 89.8458C449.031 91.3008 450.124 92.3921 451.581 92.3921C453.039 92.3921 454.132 91.3008 454.132 89.8458C454.132 88.3907 452.857 87.2994 451.581 87.2994ZM477.267 87.2994C475.81 87.2994 474.717 88.3907 474.717 89.8458C474.717 91.3008 475.81 92.3921 477.267 92.3921C478.725 92.3921 479.818 91.3008 479.818 89.8458C479.818 88.3907 478.725 87.2994 477.267 87.2994ZM12.5504 113.127C11.093 113.127 10 114.218 10 115.673C10 117.128 11.093 118.219 12.5504 118.219C14.0078 118.219 15.1008 117.128 15.1008 115.673C15.1008 114.218 14.0078 113.127 12.5504 113.127ZM38.4186 113.127C36.9612 113.127 35.8682 114.218 35.8682 115.673C35.8682 117.128 36.9612 118.219 38.4186 118.219C39.876 118.219 40.969 117.128 40.969 115.673C40.969 114.218 39.876 113.127 38.4186 113.127ZM64.2868 113.127C62.8295 113.127 61.7364 114.218 61.7364 115.673C61.7364 117.128 62.8295 118.219 64.2868 118.219C65.7442 118.219 66.8372 117.128 66.8372 115.673C66.8372 114.218 65.562 113.127 64.2868 113.127ZM89.9729 113.127C88.5155 113.127 87.4225 114.218 87.4225 115.673C87.4225 117.128 88.5155 118.219 89.9729 118.219C91.4302 118.219 92.5233 117.128 92.5233 115.673C92.7054 114.218 91.4302 113.127 89.9729 113.127ZM115.841 113.127C114.384 113.127 113.291 114.218 113.291 115.673C113.291 117.128 114.384 118.219 115.841 118.219C117.298 118.219 118.391 117.128 118.391 115.673C118.391 114.218 117.298 113.127 115.841 113.127ZM141.709 113.127C140.252 113.127 139.159 114.218 139.159 115.673C139.159 117.128 140.252 118.219 141.709 118.219C143.167 118.219 144.26 117.128 144.26 115.673C144.26 114.218 143.167 113.127 141.709 113.127ZM167.578 113.127C166.12 113.127 165.027 114.218 165.027 115.673C165.027 117.128 166.12 118.219 167.578 118.219C169.035 118.219 170.128 117.128 170.128 115.673C170.128 114.218 168.853 113.127 167.578 113.127ZM193.264 113.127C191.806 113.127 190.713 114.218 190.713 115.673C190.713 117.128 191.806 118.219 193.264 118.219C194.721 118.219 195.814 117.128 195.814 115.673C195.814 114.218 194.721 113.127 193.264 113.127ZM219.132 113.127C217.674 113.127 216.581 114.218 216.581 115.673C216.581 117.128 217.674 118.219 219.132 118.219C220.589 118.219 221.682 117.128 221.682 115.673C221.682 114.218 220.589 113.127 219.132 113.127ZM245 113.127C243.543 113.127 242.45 114.218 242.45 115.673C242.45 117.128 243.543 118.219 245 118.219C246.457 118.219 247.55 117.128 247.55 115.673C247.55 114.218 246.457 113.127 245 113.127ZM270.686 113.127C269.229 113.127 268.136 114.218 268.136 115.673C268.136 117.128 269.229 118.219 270.686 118.219C272.143 118.219 273.236 117.128 273.236 115.673C273.419 114.218 272.143 113.127 270.686 113.127ZM296.554 113.127C295.097 113.127 294.004 114.218 294.004 115.673C294.004 117.128 295.097 118.219 296.554 118.219C298.012 118.219 299.105 117.128 299.105 115.673C299.105 114.218 298.012 113.127 296.554 113.127ZM322.422 113.127C320.965 113.127 319.872 114.218 319.872 115.673C319.872 117.128 320.965 118.219 322.422 118.219C323.88 118.219 324.973 117.128 324.973 115.673C324.973 114.218 323.88 113.127 322.422 113.127ZM348.291 113.127C346.833 113.127 345.74 114.218 345.74 115.673C345.74 117.128 346.833 118.219 348.291 118.219C349.748 118.219 350.841 117.128 350.841 115.673C350.841 114.218 349.748 113.127 348.291 113.127ZM373.977 113.127C372.519 113.127 371.426 114.218 371.426 115.673C371.426 117.128 372.519 118.219 373.977 118.219C375.434 118.219 376.527 117.128 376.527 115.673C376.709 114.218 375.434 113.127 373.977 113.127ZM399.845 113.127C398.388 113.127 397.295 114.218 397.295 115.673C397.295 117.128 398.388 118.219 399.845 118.219C401.302 118.219 402.395 117.128 402.395 115.673C402.395 114.218 401.302 113.127 399.845 113.127ZM425.713 113.127C424.256 113.127 423.163 114.218 423.163 115.673C423.163 117.128 424.256 118.219 425.713 118.219C427.171 118.219 428.264 117.128 428.264 115.673C428.264 114.218 427.171 113.127 425.713 113.127ZM451.581 113.127C450.124 113.127 449.031 114.218 449.031 115.673C449.031 117.128 450.124 118.219 451.581 118.219C453.039 118.219 454.132 117.128 454.132 115.673C454.132 114.218 452.857 113.127 451.581 113.127ZM477.267 113.127C475.81 113.127 474.717 114.218 474.717 115.673C474.717 117.128 475.81 118.219 477.267 118.219C478.725 118.219 479.818 117.128 479.818 115.673C480 114.218 478.725 113.127 477.267 113.127ZM12.5504 138.954C11.093 138.954 10 140.045 10 141.5C10 142.955 11.093 144.046 12.5504 144.046C14.0078 144.046 15.1008 142.955 15.1008 141.5C15.1008 140.045 14.0078 138.954 12.5504 138.954ZM38.4186 138.954C36.9612 138.954 35.8682 140.045 35.8682 141.5C35.8682 142.955 36.9612 144.046 38.4186 144.046C39.876 144.046 40.969 142.955 40.969 141.5C40.969 140.045 39.876 138.954 38.4186 138.954ZM64.2868 138.954C62.8295 138.954 61.7364 140.045 61.7364 141.5C61.7364 142.955 62.8295 144.046 64.2868 144.046C65.7442 144.046 66.8372 142.955 66.8372 141.5C66.8372 140.045 65.562 138.954 64.2868 138.954ZM89.9729 138.954C88.5155 138.954 87.4225 140.045 87.4225 141.5C87.4225 142.955 88.5155 144.046 89.9729 144.046C91.4302 144.046 92.5233 142.955 92.5233 141.5C92.7054 140.045 91.4302 138.954 89.9729 138.954ZM115.841 138.954C114.384 138.954 113.291 140.045 113.291 141.5C113.291 142.955 114.384 144.046 115.841 144.046C117.298 144.046 118.391 142.955 118.391 141.5C118.391 140.045 117.298 138.954 115.841 138.954ZM141.709 138.954C140.252 138.954 139.159 140.045 139.159 141.5C139.159 142.955 140.252 144.046 141.709 144.046C143.167 144.046 144.26 142.955 144.26 141.5C144.26 140.045 143.167 138.954 141.709 138.954ZM167.578 138.954C166.12 138.954 165.027 140.045 165.027 141.5C165.027 142.955 166.12 144.046 167.578 144.046C169.035 144.046 170.128 142.955 170.128 141.5C170.128 140.045 168.853 138.954 167.578 138.954ZM193.264 138.954C191.806 138.954 190.713 140.045 190.713 141.5C190.713 142.955 191.806 144.046 193.264 144.046C194.721 144.046 195.814 142.955 195.814 141.5C195.814 140.045 194.721 138.954 193.264 138.954ZM219.132 138.954C217.674 138.954 216.581 140.045 216.581 141.5C216.581 142.955 217.674 144.046 219.132 144.046C220.589 144.046 221.682 142.955 221.682 141.5C221.682 140.045 220.589 138.954 219.132 138.954ZM245 138.954C243.543 138.954 242.45 140.045 242.45 141.5C242.45 142.955 243.543 144.046 245 144.046C246.457 144.046 247.55 142.955 247.55 141.5C247.55 140.045 246.457 138.954 245 138.954ZM270.686 138.954C269.229 138.954 268.136 140.045 268.136 141.5C268.136 142.955 269.229 144.046 270.686 144.046C272.143 144.046 273.236 142.955 273.236 141.5C273.419 140.045 272.143 138.954 270.686 138.954ZM296.554 138.954C295.097 138.954 294.004 140.045 294.004 141.5C294.004 142.955 295.097 144.046 296.554 144.046C298.012 144.046 299.105 142.955 299.105 141.5C299.105 140.045 298.012 138.954 296.554 138.954ZM322.422 138.954C320.965 138.954 319.872 140.045 319.872 141.5C319.872 142.955 320.965 144.046 322.422 144.046C323.88 144.046 324.973 142.955 324.973 141.5C324.973 140.045 323.88 138.954 322.422 138.954ZM348.291 138.954C346.833 138.954 345.74 140.045 345.74 141.5C345.74 142.955 346.833 144.046 348.291 144.046C349.748 144.046 350.841 142.955 350.841 141.5C350.841 140.045 349.748 138.954 348.291 138.954ZM373.977 138.954C372.519 138.954 371.426 140.045 371.426 141.5C371.426 142.955 372.519 144.046 373.977 144.046C375.434 144.046 376.527 142.955 376.527 141.5C376.709 140.045 375.434 138.954 373.977 138.954ZM399.845 138.954C398.388 138.954 397.295 140.045 397.295 141.5C397.295 142.955 398.388 144.046 399.845 144.046C401.302 144.046 402.395 142.955 402.395 141.5C402.395 140.045 401.302 138.954 399.845 138.954ZM425.713 138.954C424.256 138.954 423.163 140.045 423.163 141.5C423.163 142.955 424.256 144.046 425.713 144.046C427.171 144.046 428.264 142.955 428.264 141.5C428.264 140.045 427.171 138.954 425.713 138.954ZM451.581 138.954C450.124 138.954 449.031 140.045 449.031 141.5C449.031 142.955 450.124 144.046 451.581 144.046C453.039 144.046 454.132 142.955 454.132 141.5C454.132 140.045 452.857 138.954 451.581 138.954ZM477.267 138.954C475.81 138.954 474.717 140.045 474.717 141.5C474.717 142.955 475.81 144.046 477.267 144.046C478.725 144.046 479.818 142.955 479.818 141.5C480 140.045 478.725 138.954 477.267 138.954ZM12.5504 164.599C11.093 164.599 10 165.872 10 167.327C10 168.782 11.093 169.873 12.5504 169.873C14.0078 169.873 15.1008 168.782 15.1008 167.327C15.1008 165.872 14.0078 164.599 12.5504 164.599ZM38.4186 164.599C36.9612 164.599 35.8682 165.69 35.8682 167.145C35.8682 168.6 36.9612 169.692 38.4186 169.692C39.876 169.692 40.969 168.6 40.969 167.145C40.969 165.872 39.876 164.599 38.4186 164.599ZM64.2868 164.599C62.8295 164.599 61.7364 165.69 61.7364 167.145C61.7364 168.6 62.8295 169.692 64.2868 169.692C65.7442 169.692 66.8372 168.6 66.8372 167.145C66.8372 165.872 65.562 164.599 64.2868 164.599ZM89.9729 164.599C88.5155 164.599 87.4225 165.69 87.4225 167.145C87.4225 168.6 88.5155 169.692 89.9729 169.692C91.4302 169.692 92.5233 168.6 92.5233 167.145C92.7054 165.872 91.4302 164.599 89.9729 164.599ZM115.841 164.599C114.384 164.599 113.291 165.69 113.291 167.145C113.291 168.6 114.384 169.692 115.841 169.692C117.298 169.692 118.391 168.6 118.391 167.145C118.391 165.872 117.298 164.599 115.841 164.599ZM141.709 164.599C140.252 164.599 139.159 165.69 139.159 167.145C139.159 168.6 140.252 169.692 141.709 169.692C143.167 169.692 144.26 168.6 144.26 167.145C144.26 165.872 143.167 164.599 141.709 164.599ZM167.578 164.599C166.12 164.599 165.027 165.69 165.027 167.145C165.027 168.6 166.12 169.692 167.578 169.692C169.035 169.692 170.128 168.6 170.128 167.145C170.128 165.872 168.853 164.599 167.578 164.599ZM193.264 164.599C191.806 164.599 190.713 165.69 190.713 167.145C190.713 168.6 191.806 169.692 193.264 169.692C194.721 169.692 195.814 168.6 195.814 167.145C195.814 165.872 194.721 164.599 193.264 164.599ZM219.132 164.599C217.674 164.599 216.581 165.69 216.581 167.145C216.581 168.6 217.674 169.692 219.132 169.692C220.589 169.692 221.682 168.6 221.682 167.145C221.682 165.872 220.589 164.599 219.132 164.599ZM245 164.599C243.543 164.599 242.45 165.69 242.45 167.145C242.45 168.6 243.543 169.692 245 169.692C246.457 169.692 247.55 168.6 247.55 167.145C247.55 165.872 246.457 164.599 245 164.599ZM270.686 164.599C269.229 164.599 268.136 165.69 268.136 167.145C268.136 168.6 269.229 169.692 270.686 169.692C272.143 169.692 273.236 168.6 273.236 167.145C273.419 165.872 272.143 164.599 270.686 164.599ZM296.554 164.599C295.097 164.599 294.004 165.69 294.004 167.145C294.004 168.6 295.097 169.692 296.554 169.692C298.012 169.692 299.105 168.6 299.105 167.145C299.105 165.872 298.012 164.599 296.554 164.599ZM322.422 164.599C320.965 164.599 319.872 165.69 319.872 167.145C319.872 168.6 320.965 169.692 322.422 169.692C323.88 169.692 324.973 168.6 324.973 167.145C324.973 165.872 323.88 164.599 322.422 164.599ZM348.291 164.599C346.833 164.599 345.74 165.69 345.74 167.145C345.74 168.6 346.833 169.692 348.291 169.692C349.748 169.692 350.841 168.6 350.841 167.145C350.841 165.872 349.748 164.599 348.291 164.599ZM373.977 164.599C372.519 164.599 371.426 165.69 371.426 167.145C371.426 168.6 372.519 169.692 373.977 169.692C375.434 169.692 376.527 168.6 376.527 167.145C376.709 165.872 375.434 164.599 373.977 164.599ZM399.845 164.599C398.388 164.599 397.295 165.69 397.295 167.145C397.295 168.6 398.388 169.692 399.845 169.692C401.302 169.692 402.395 168.6 402.395 167.145C402.395 165.872 401.302 164.599 399.845 164.599ZM425.713 164.599C424.256 164.599 423.163 165.69 423.163 167.145C423.163 168.6 424.256 169.692 425.713 169.692C427.171 169.692 428.264 168.6 428.264 167.145C428.264 165.872 427.171 164.599 425.713 164.599ZM451.581 164.599C450.124 164.599 449.031 165.69 449.031 167.145C449.031 168.6 450.124 169.692 451.581 169.692C453.039 169.692 454.132 168.6 454.132 167.145C454.132 165.872 452.857 164.599 451.581 164.599ZM477.267 164.599C475.81 164.599 474.717 165.69 474.717 167.145C474.717 168.6 475.81 169.692 477.267 169.692C478.725 169.692 479.818 168.6 479.818 167.145C480 165.872 478.725 164.599 477.267 164.599ZM12.5504 190.426C11.093 190.426 10 191.517 10 192.972C10 194.427 11.093 195.519 12.5504 195.519C14.0078 195.519 15.1008 194.427 15.1008 192.972C15.1008 191.517 14.0078 190.426 12.5504 190.426ZM38.4186 190.426C36.9612 190.426 35.8682 191.517 35.8682 192.972C35.8682 194.427 36.9612 195.519 38.4186 195.519C39.876 195.519 40.969 194.427 40.969 192.972C40.969 191.517 39.876 190.426 38.4186 190.426ZM64.2868 190.426C62.8295 190.426 61.7364 191.517 61.7364 192.972C61.7364 194.427 62.8295 195.519 64.2868 195.519C65.7442 195.519 66.8372 194.427 66.8372 192.972C66.8372 191.517 65.562 190.426 64.2868 190.426ZM89.9729 190.426C88.5155 190.426 87.4225 191.517 87.4225 192.972C87.4225 194.427 88.5155 195.519 89.9729 195.519C91.4302 195.519 92.5233 194.427 92.5233 192.972C92.5233 191.517 91.4302 190.426 89.9729 190.426ZM115.841 190.426C114.384 190.426 113.291 191.517 113.291 192.972C113.291 194.427 114.384 195.519 115.841 195.519C117.298 195.519 118.391 194.427 118.391 192.972C118.391 191.517 117.298 190.426 115.841 190.426ZM141.709 190.426C140.252 190.426 139.159 191.517 139.159 192.972C139.159 194.427 140.252 195.519 141.709 195.519C143.167 195.519 144.26 194.427 144.26 192.972C144.26 191.517 143.167 190.426 141.709 190.426ZM167.578 190.426C166.12 190.426 165.027 191.517 165.027 192.972C165.027 194.427 166.12 195.519 167.578 195.519C169.035 195.519 170.128 194.427 170.128 192.972C170.128 191.517 168.853 190.426 167.578 190.426ZM193.264 190.426C191.806 190.426 190.713 191.517 190.713 192.972C190.713 194.427 191.806 195.519 193.264 195.519C194.721 195.519 195.814 194.427 195.814 192.972C195.814 191.517 194.721 190.426 193.264 190.426ZM219.132 190.426C217.674 190.426 216.581 191.517 216.581 192.972C216.581 194.427 217.674 195.519 219.132 195.519C220.589 195.519 221.682 194.427 221.682 192.972C221.682 191.517 220.589 190.426 219.132 190.426ZM245 190.426C243.543 190.426 242.45 191.517 242.45 192.972C242.45 194.427 243.543 195.519 245 195.519C246.457 195.519 247.55 194.427 247.55 192.972C247.55 191.517 246.457 190.426 245 190.426ZM270.686 190.426C269.229 190.426 268.136 191.517 268.136 192.972C268.136 194.427 269.229 195.519 270.686 195.519C272.143 195.519 273.236 194.427 273.236 192.972C273.236 191.517 272.143 190.426 270.686 190.426ZM296.554 190.426C295.097 190.426 294.004 191.517 294.004 192.972C294.004 194.427 295.097 195.519 296.554 195.519C298.012 195.519 299.105 194.427 299.105 192.972C299.105 191.517 298.012 190.426 296.554 190.426ZM322.422 190.426C320.965 190.426 319.872 191.517 319.872 192.972C319.872 194.427 320.965 195.519 322.422 195.519C323.88 195.519 324.973 194.427 324.973 192.972C324.973 191.517 323.88 190.426 322.422 190.426ZM348.291 190.426C346.833 190.426 345.74 191.517 345.74 192.972C345.74 194.427 346.833 195.519 348.291 195.519C349.748 195.519 350.841 194.427 350.841 192.972C350.841 191.517 349.748 190.426 348.291 190.426ZM373.977 190.426C372.519 190.426 371.426 191.517 371.426 192.972C371.426 194.427 372.519 195.519 373.977 195.519C375.434 195.519 376.527 194.427 376.527 192.972C376.527 191.517 375.434 190.426 373.977 190.426ZM399.845 190.426C398.388 190.426 397.295 191.517 397.295 192.972C397.295 194.427 398.388 195.519 399.845 195.519C401.302 195.519 402.395 194.427 402.395 192.972C402.395 191.517 401.302 190.426 399.845 190.426ZM425.713 190.426C424.256 190.426 423.163 191.517 423.163 192.972C423.163 194.427 424.256 195.519 425.713 195.519C427.171 195.519 428.264 194.427 428.264 192.972C428.264 191.517 427.171 190.426 425.713 190.426ZM451.581 190.426C450.124 190.426 449.031 191.517 449.031 192.972C449.031 194.427 450.124 195.519 451.581 195.519C453.039 195.519 454.132 194.427 454.132 192.972C454.132 191.517 452.857 190.426 451.581 190.426ZM477.267 190.426C475.81 190.426 474.717 191.517 474.717 192.972C474.717 194.427 475.81 195.519 477.267 195.519C478.725 195.519 479.818 194.427 479.818 192.972C479.818 191.517 478.725 190.426 477.267 190.426ZM12.5504 216.253C11.093 216.253 10 217.344 10 218.799C10 220.255 11.093 221.346 12.5504 221.346C14.0078 221.346 15.1008 220.255 15.1008 218.799C15.1008 217.344 14.0078 216.253 12.5504 216.253ZM38.4186 216.253C36.9612 216.253 35.8682 217.344 35.8682 218.799C35.8682 220.255 36.9612 221.346 38.4186 221.346C39.876 221.346 40.969 220.255 40.969 218.799C40.969 217.344 39.876 216.253 38.4186 216.253ZM64.2868 216.253C62.8295 216.253 61.7364 217.344 61.7364 218.799C61.7364 220.255 62.8295 221.346 64.2868 221.346C65.7442 221.346 66.8372 220.255 66.8372 218.799C66.8372 217.344 65.562 216.253 64.2868 216.253ZM89.9729 216.253C88.5155 216.253 87.4225 217.344 87.4225 218.799C87.4225 220.255 88.5155 221.346 89.9729 221.346C91.4302 221.346 92.5233 220.255 92.5233 218.799C92.7054 217.344 91.4302 216.253 89.9729 216.253ZM115.841 216.253C114.384 216.253 113.291 217.344 113.291 218.799C113.291 220.255 114.384 221.346 115.841 221.346C117.298 221.346 118.391 220.255 118.391 218.799C118.391 217.344 117.298 216.253 115.841 216.253ZM141.709 216.253C140.252 216.253 139.159 217.344 139.159 218.799C139.159 220.255 140.252 221.346 141.709 221.346C143.167 221.346 144.26 220.255 144.26 218.799C144.26 217.344 143.167 216.253 141.709 216.253ZM167.578 216.253C166.12 216.253 165.027 217.344 165.027 218.799C165.027 220.255 166.12 221.346 167.578 221.346C169.035 221.346 170.128 220.255 170.128 218.799C170.128 217.344 168.853 216.253 167.578 216.253ZM193.264 216.253C191.806 216.253 190.713 217.344 190.713 218.799C190.713 220.255 191.806 221.346 193.264 221.346C194.721 221.346 195.814 220.255 195.814 218.799C195.814 217.344 194.721 216.253 193.264 216.253ZM219.132 216.253C217.674 216.253 216.581 217.344 216.581 218.799C216.581 220.255 217.674 221.346 219.132 221.346C220.589 221.346 221.682 220.255 221.682 218.799C221.682 217.344 220.589 216.253 219.132 216.253ZM245 216.253C243.543 216.253 242.45 217.344 242.45 218.799C242.45 220.255 243.543 221.346 245 221.346C246.457 221.346 247.55 220.255 247.55 218.799C247.55 217.344 246.457 216.253 245 216.253ZM270.686 216.253C269.229 216.253 268.136 217.344 268.136 218.799C268.136 220.255 269.229 221.346 270.686 221.346C272.143 221.346 273.236 220.255 273.236 218.799C273.419 217.344 272.143 216.253 270.686 216.253ZM296.554 216.253C295.097 216.253 294.004 217.344 294.004 218.799C294.004 220.255 295.097 221.346 296.554 221.346C298.012 221.346 299.105 220.255 299.105 218.799C299.105 217.344 298.012 216.253 296.554 216.253ZM322.422 216.253C320.965 216.253 319.872 217.344 319.872 218.799C319.872 220.255 320.965 221.346 322.422 221.346C323.88 221.346 324.973 220.255 324.973 218.799C324.973 217.344 323.88 216.253 322.422 216.253ZM348.291 216.253C346.833 216.253 345.74 217.344 345.74 218.799C345.74 220.255 346.833 221.346 348.291 221.346C349.748 221.346 350.841 220.255 350.841 218.799C350.841 217.344 349.748 216.253 348.291 216.253ZM373.977 216.253C372.519 216.253 371.426 217.344 371.426 218.799C371.426 220.255 372.519 221.346 373.977 221.346C375.434 221.346 376.527 220.255 376.527 218.799C376.709 217.344 375.434 216.253 373.977 216.253ZM399.845 216.253C398.388 216.253 397.295 217.344 397.295 218.799C397.295 220.255 398.388 221.346 399.845 221.346C401.302 221.346 402.395 220.255 402.395 218.799C402.395 217.344 401.302 216.253 399.845 216.253ZM425.713 216.253C424.256 216.253 423.163 217.344 423.163 218.799C423.163 220.255 424.256 221.346 425.713 221.346C427.171 221.346 428.264 220.255 428.264 218.799C428.264 217.344 427.171 216.253 425.713 216.253ZM451.581 216.253C450.124 216.253 449.031 217.344 449.031 218.799C449.031 220.255 450.124 221.346 451.581 221.346C453.039 221.346 454.132 220.255 454.132 218.799C454.132 217.344 452.857 216.253 451.581 216.253ZM477.267 216.253C475.81 216.253 474.717 217.344 474.717 218.799C474.717 220.255 475.81 221.346 477.267 221.346C478.725 221.346 479.818 220.255 479.818 218.799C480 217.344 478.725 216.253 477.267 216.253ZM12.5504 242.08C11.093 242.08 10 243.172 10 244.627C10 246.082 11.093 247.173 12.5504 247.173C14.0078 247.173 15.1008 246.082 15.1008 244.627C15.1008 243.172 14.0078 242.08 12.5504 242.08ZM38.4186 242.08C36.9612 242.08 35.8682 243.172 35.8682 244.627C35.8682 246.082 36.9612 247.173 38.4186 247.173C39.876 247.173 40.969 246.082 40.969 244.627C40.969 243.172 39.876 242.08 38.4186 242.08ZM64.2868 242.08C62.8295 242.08 61.7364 243.172 61.7364 244.627C61.7364 246.082 62.8295 247.173 64.2868 247.173C65.7442 247.173 66.8372 246.082 66.8372 244.627C66.8372 243.172 65.562 242.08 64.2868 242.08ZM89.9729 242.08C88.5155 242.08 87.4225 243.172 87.4225 244.627C87.4225 246.082 88.5155 247.173 89.9729 247.173C91.4302 247.173 92.5233 246.082 92.5233 244.627C92.5233 243.172 91.4302 242.08 89.9729 242.08ZM115.841 242.08C114.384 242.08 113.291 243.172 113.291 244.627C113.291 246.082 114.384 247.173 115.841 247.173C117.298 247.173 118.391 246.082 118.391 244.627C118.391 243.172 117.298 242.08 115.841 242.08ZM141.709 242.08C140.252 242.08 139.159 243.172 139.159 244.627C139.159 246.082 140.252 247.173 141.709 247.173C143.167 247.173 144.26 246.082 144.26 244.627C144.26 243.172 143.167 242.08 141.709 242.08ZM167.578 242.08C166.12 242.08 165.027 243.172 165.027 244.627C165.027 246.082 166.12 247.173 167.578 247.173C169.035 247.173 170.128 246.082 170.128 244.627C170.128 243.172 168.853 242.08 167.578 242.08ZM193.264 242.08C191.806 242.08 190.713 243.172 190.713 244.627C190.713 246.082 191.806 247.173 193.264 247.173C194.721 247.173 195.814 246.082 195.814 244.627C195.814 243.172 194.721 242.08 193.264 242.08ZM219.132 242.08C217.674 242.08 216.581 243.172 216.581 244.627C216.581 246.082 217.674 247.173 219.132 247.173C220.589 247.173 221.682 246.082 221.682 244.627C221.682 243.172 220.589 242.08 219.132 242.08ZM245 242.08C243.543 242.08 242.45 243.172 242.45 244.627C242.45 246.082 243.543 247.173 245 247.173C246.457 247.173 247.55 246.082 247.55 244.627C247.55 243.172 246.457 242.08 245 242.08ZM270.686 242.08C269.229 242.08 268.136 243.172 268.136 244.627C268.136 246.082 269.229 247.173 270.686 247.173C272.143 247.173 273.236 246.082 273.236 244.627C273.236 243.172 272.143 242.08 270.686 242.08ZM296.554 242.08C295.097 242.08 294.004 243.172 294.004 244.627C294.004 246.082 295.097 247.173 296.554 247.173C298.012 247.173 299.105 246.082 299.105 244.627C299.105 243.172 298.012 242.08 296.554 242.08ZM322.422 242.08C320.965 242.08 319.872 243.172 319.872 244.627C319.872 246.082 320.965 247.173 322.422 247.173C323.88 247.173 324.973 246.082 324.973 244.627C324.973 243.172 323.88 242.08 322.422 242.08ZM348.291 242.08C346.833 242.08 345.74 243.172 345.74 244.627C345.74 246.082 346.833 247.173 348.291 247.173C349.748 247.173 350.841 246.082 350.841 244.627C350.841 243.172 349.748 242.08 348.291 242.08ZM373.977 242.08C372.519 242.08 371.426 243.172 371.426 244.627C371.426 246.082 372.519 247.173 373.977 247.173C375.434 247.173 376.527 246.082 376.527 244.627C376.527 243.172 375.434 242.08 373.977 242.08ZM399.845 242.08C398.388 242.08 397.295 243.172 397.295 244.627C397.295 246.082 398.388 247.173 399.845 247.173C401.302 247.173 402.395 246.082 402.395 244.627C402.395 243.172 401.302 242.08 399.845 242.08ZM425.713 242.08C424.256 242.08 423.163 243.172 423.163 244.627C423.163 246.082 424.256 247.173 425.713 247.173C427.171 247.173 428.264 246.082 428.264 244.627C428.264 243.172 427.171 242.08 425.713 242.08ZM451.581 242.08C450.124 242.08 449.031 243.172 449.031 244.627C449.031 246.082 450.124 247.173 451.581 247.173C453.039 247.173 454.132 246.082 454.132 244.627C454.132 243.172 452.857 242.08 451.581 242.08ZM477.267 242.08C475.81 242.08 474.717 243.172 474.717 244.627C474.717 246.082 475.81 247.173 477.267 247.173C478.725 247.173 479.818 246.082 479.818 244.627C479.818 243.172 478.725 242.08 477.267 242.08ZM12.5504 267.725C11.093 267.725 10 268.817 10 270.272C10 271.727 11.093 272.818 12.5504 272.818C14.0078 272.818 15.1008 271.727 15.1008 270.272C15.1008 268.999 14.0078 267.725 12.5504 267.725ZM38.4186 267.725C36.9612 267.725 35.8682 268.817 35.8682 270.272C35.8682 271.727 36.9612 272.818 38.4186 272.818C39.876 272.818 40.969 271.727 40.969 270.272C40.969 268.999 39.876 267.725 38.4186 267.725ZM64.2868 267.725C62.8295 267.725 61.7364 268.817 61.7364 270.272C61.7364 271.727 62.8295 272.818 64.2868 272.818C65.7442 272.818 66.8372 271.727 66.8372 270.272C66.8372 268.999 65.562 267.725 64.2868 267.725ZM89.9729 267.725C88.5155 267.725 87.4225 268.817 87.4225 270.272C87.4225 271.727 88.5155 272.818 89.9729 272.818C91.4302 272.818 92.5233 271.727 92.5233 270.272C92.7054 268.999 91.4302 267.725 89.9729 267.725ZM115.841 267.725C114.384 267.725 113.291 268.817 113.291 270.272C113.291 271.727 114.384 272.818 115.841 272.818C117.298 272.818 118.391 271.727 118.391 270.272C118.391 268.999 117.298 267.725 115.841 267.725ZM141.709 267.725C140.252 267.725 139.159 268.817 139.159 270.272C139.159 271.727 140.252 272.818 141.709 272.818C143.167 272.818 144.26 271.727 144.26 270.272C144.26 268.999 143.167 267.725 141.709 267.725ZM167.578 267.725C166.12 267.725 165.027 268.817 165.027 270.272C165.027 271.727 166.12 272.818 167.578 272.818C169.035 272.818 170.128 271.727 170.128 270.272C170.128 268.999 168.853 267.725 167.578 267.725ZM193.264 267.725C191.806 267.725 190.713 268.817 190.713 270.272C190.713 271.727 191.806 272.818 193.264 272.818C194.721 272.818 195.814 271.727 195.814 270.272C195.814 268.999 194.721 267.725 193.264 267.725ZM219.132 267.725C217.674 267.725 216.581 268.817 216.581 270.272C216.581 271.727 217.674 272.818 219.132 272.818C220.589 272.818 221.682 271.727 221.682 270.272C221.682 268.999 220.589 267.725 219.132 267.725ZM245 267.725C243.543 267.725 242.45 268.817 242.45 270.272C242.45 271.727 243.543 272.818 245 272.818C246.457 272.818 247.55 271.727 247.55 270.272C247.55 268.999 246.457 267.725 245 267.725ZM270.686 267.725C269.229 267.725 268.136 268.817 268.136 270.272C268.136 271.727 269.229 272.818 270.686 272.818C272.143 272.818 273.236 271.727 273.236 270.272C273.419 268.999 272.143 267.725 270.686 267.725ZM296.554 267.725C295.097 267.725 294.004 268.817 294.004 270.272C294.004 271.727 295.097 272.818 296.554 272.818C298.012 272.818 299.105 271.727 299.105 270.272C299.105 268.999 298.012 267.725 296.554 267.725ZM322.422 267.725C320.965 267.725 319.872 268.817 319.872 270.272C319.872 271.727 320.965 272.818 322.422 272.818C323.88 272.818 324.973 271.727 324.973 270.272C324.973 268.999 323.88 267.725 322.422 267.725ZM348.291 267.725C346.833 267.725 345.74 268.817 345.74 270.272C345.74 271.727 346.833 272.818 348.291 272.818C349.748 272.818 350.841 271.727 350.841 270.272C350.841 268.999 349.748 267.725 348.291 267.725ZM373.977 267.725C372.519 267.725 371.426 268.817 371.426 270.272C371.426 271.727 372.519 272.818 373.977 272.818C375.434 272.818 376.527 271.727 376.527 270.272C376.709 268.999 375.434 267.725 373.977 267.725ZM399.845 267.725C398.388 267.725 397.295 268.817 397.295 270.272C397.295 271.727 398.388 272.818 399.845 272.818C401.302 272.818 402.395 271.727 402.395 270.272C402.395 268.999 401.302 267.725 399.845 267.725ZM425.713 267.725C424.256 267.725 423.163 268.817 423.163 270.272C423.163 271.727 424.256 272.818 425.713 272.818C427.171 272.818 428.264 271.727 428.264 270.272C428.264 268.999 427.171 267.725 425.713 267.725ZM451.581 267.725C450.124 267.725 449.031 268.817 449.031 270.272C449.031 271.727 450.124 272.818 451.581 272.818C453.039 272.818 454.132 271.727 454.132 270.272C454.132 268.999 452.857 267.725 451.581 267.725ZM477.267 267.725C475.81 267.725 474.717 268.817 474.717 270.272C474.717 271.727 475.81 272.818 477.267 272.818C478.725 272.818 479.818 271.727 479.818 270.272C480 268.999 478.725 267.725 477.267 267.725Z" fill="url(#paint0_linear_4_10)" fill-opacity="0.13"/>
<defs>
<linearGradient id="paint0_linear_4_10" x1="244.957" y1="10" x2="244.957" y2="272.94" gradientUnits="userSpaceOnUse">
<stop stop-color="#C4C4C4"/>
<stop offset="1" stop-color="#C4C4C4"/>
</linearGradient>
</defs>
</svg>
