<svg width="268" height="263" viewBox="0 0 268 263" fill="none" xmlns="http://www.w3.org/2000/svg">
<path d="M-196.899 2.54633C-196.899 4.00138 -197.992 5.09267 -199.45 5.09267C-200.907 5.09267 -202 4.00138 -202 2.54633C-202 1.09129 -200.907 0 -199.45 0C-197.992 0 -196.899 1.09129 -196.899 2.54633ZM-173.581 0C-175.039 0 -176.132 1.09129 -176.132 2.54633C-176.132 4.00138 -175.039 5.09267 -173.581 5.09267C-172.124 5.09267 -171.031 4.00138 -171.031 2.54633C-171.031 1.09129 -172.124 0 -173.581 0ZM-147.713 0C-149.171 0 -150.264 1.09129 -150.264 2.54633C-150.264 4.00138 -149.171 5.09267 -147.713 5.09267C-146.256 5.09267 -145.163 4.00138 -145.163 2.54633C-145.163 1.09129 -146.438 0 -147.713 0ZM-122.027 0C-123.484 0 -124.578 1.09129 -124.578 2.54633C-124.578 4.00138 -123.484 5.09267 -122.027 5.09267C-120.57 5.09267 -119.477 4.00138 -119.477 2.54633C-119.477 1.09129 -120.57 0 -122.027 0ZM-96.1589 0C-97.6163 0 -98.7093 1.09129 -98.7093 2.54633C-98.7093 4.00138 -97.6163 5.09267 -96.1589 5.09267C-94.7016 5.09267 -93.6085 4.00138 -93.6085 2.54633C-93.6085 1.09129 -94.7016 0 -96.1589 0ZM-70.2907 0C-71.748 0 -72.8411 1.09129 -72.8411 2.54633C-72.8411 4.00138 -71.748 5.09267 -70.2907 5.09267C-68.8333 5.09267 -67.7403 4.00138 -67.7403 2.54633C-67.7403 1.09129 -68.8333 0 -70.2907 0ZM-44.4225 0C-45.8798 0 -47.155 1.09129 -47.155 2.54633C-47.155 4.00138 -46.062 5.09267 -44.6046 5.09267C-43.1473 5.09267 -42.0543 4.00138 -42.0543 2.54633C-42.0543 1.09129 -43.1473 0 -44.4225 0ZM-18.7364 0C-20.1938 0 -21.2868 1.09129 -21.2868 2.54633C-21.2868 4.00138 -20.1938 5.09267 -18.7364 5.09267C-17.2791 5.09267 -16.1861 4.00138 -16.1861 2.54633C-16.1861 1.09129 -17.2791 0 -18.7364 0ZM7.13179 0C5.67442 0 4.58141 1.09129 4.58141 2.54633C4.58141 4.00138 5.67442 5.09267 7.13179 5.09267C8.58916 5.09267 9.68217 4.00138 9.68217 2.54633C9.68217 1.09129 8.58916 0 7.13179 0ZM33 0C31.5426 0 30.4496 1.09129 30.4496 2.54633C30.4496 4.00138 31.5426 5.09267 33 5.09267C34.4574 5.09267 35.5504 4.00138 35.5504 2.54633C35.5504 1.09129 34.4574 0 33 0ZM58.6861 0C57.2287 0 56.1357 1.09129 56.1357 2.54633C56.1357 4.00138 57.2287 5.09267 58.6861 5.09267C60.1434 5.09267 61.2365 4.00138 61.2365 2.54633C61.2365 1.09129 60.1434 0 58.6861 0ZM84.5543 0C83.0969 0 82.0039 1.09129 82.0039 2.54633C82.0039 4.00138 83.0969 5.09267 84.5543 5.09267C86.0116 5.09267 87.1046 4.00138 87.1046 2.54633C87.1046 1.09129 86.0116 0 84.5543 0ZM110.422 0C108.965 0 107.872 1.09129 107.872 2.54633C107.872 4.00138 108.965 5.09267 110.422 5.09267C111.88 5.09267 112.973 4.00138 112.973 2.54633C112.973 1.09129 111.88 0 110.422 0ZM136.291 0C134.833 0 133.74 1.09129 133.74 2.54633C133.74 4.00138 134.833 5.09267 136.291 5.09267C137.748 5.09267 138.841 4.00138 138.841 2.54633C138.841 1.09129 137.748 0 136.291 0ZM161.977 0C160.519 0 159.426 1.09129 159.426 2.54633C159.426 4.00138 160.519 5.09267 161.977 5.09267C163.434 5.09267 164.527 4.00138 164.527 2.54633C164.527 1.09129 163.434 0 161.977 0ZM187.845 0C186.388 0 185.295 1.09129 185.295 2.54633C185.295 4.00138 186.388 5.09267 187.845 5.09267C189.302 5.09267 190.395 4.00138 190.395 2.54633C190.395 1.09129 189.302 0 187.845 0ZM213.713 0C212.256 0 211.163 1.09129 211.163 2.54633C211.163 4.00138 212.256 5.09267 213.713 5.09267C215.171 5.09267 216.264 4.00138 216.264 2.54633C216.264 1.09129 215.171 0 213.713 0ZM239.581 0C238.124 0 237.031 1.09129 237.031 2.54633C237.031 4.00138 238.124 5.09267 239.581 5.09267C241.039 5.09267 242.132 4.00138 242.132 2.54633C242.132 1.09129 240.857 0 239.581 0ZM265.267 0C263.81 0 262.717 1.09129 262.717 2.54633C262.717 4.00138 263.81 5.09267 265.267 5.09267C266.725 5.09267 267.818 4.00138 267.818 2.54633C267.818 1.09129 266.725 0 265.267 0ZM-199.45 25.8271C-200.907 25.8271 -202 26.9184 -202 28.3734C-202 29.8285 -200.907 30.9198 -199.45 30.9198C-197.992 30.9198 -196.899 29.8285 -196.899 28.3734C-196.899 26.9184 -197.992 25.8271 -199.45 25.8271ZM-173.581 25.8271C-175.039 25.8271 -176.132 26.9184 -176.132 28.3734C-176.132 29.8285 -175.039 30.9198 -173.581 30.9198C-172.124 30.9198 -171.031 29.8285 -171.031 28.3734C-171.031 26.9184 -172.124 25.8271 -173.581 25.8271ZM-147.713 25.8271C-149.171 25.8271 -150.264 26.9184 -150.264 28.3734C-150.264 29.8285 -149.171 30.9198 -147.713 30.9198C-146.256 30.9198 -145.163 29.8285 -145.163 28.3734C-145.163 26.9184 -146.438 25.8271 -147.713 25.8271ZM-122.027 25.8271C-123.484 25.8271 -124.578 26.9184 -124.578 28.3734C-124.578 29.8285 -123.484 30.9198 -122.027 30.9198C-120.57 30.9198 -119.477 29.8285 -119.477 28.3734C-119.477 26.9184 -120.57 25.8271 -122.027 25.8271ZM-96.1589 25.8271C-97.6163 25.8271 -98.7093 26.9184 -98.7093 28.3734C-98.7093 29.8285 -97.6163 30.9198 -96.1589 30.9198C-94.7016 30.9198 -93.6085 29.8285 -93.6085 28.3734C-93.6085 26.9184 -94.7016 25.8271 -96.1589 25.8271ZM-70.2907 25.8271C-71.748 25.8271 -72.8411 26.9184 -72.8411 28.3734C-72.8411 29.8285 -71.748 30.9198 -70.2907 30.9198C-68.8333 30.9198 -67.7403 29.8285 -67.7403 28.3734C-67.7403 26.9184 -68.8333 25.8271 -70.2907 25.8271ZM-44.4225 25.8271C-45.8798 25.8271 -46.9729 26.9184 -46.9729 28.3734C-46.9729 29.8285 -45.8798 30.9198 -44.4225 30.9198C-42.9651 30.9198 -41.8721 29.8285 -41.8721 28.3734C-41.8721 26.9184 -43.1473 25.8271 -44.4225 25.8271ZM-18.7364 25.8271C-20.1938 25.8271 -21.2868 26.9184 -21.2868 28.3734C-21.2868 29.8285 -20.1938 30.9198 -18.7364 30.9198C-17.2791 30.9198 -16.1861 29.8285 -16.1861 28.3734C-16.1861 26.9184 -17.2791 25.8271 -18.7364 25.8271ZM7.13179 25.8271C5.67442 25.8271 4.58141 26.9184 4.58141 28.3734C4.58141 29.8285 5.67442 30.9198 7.13179 30.9198C8.58916 30.9198 9.68217 29.8285 9.68217 28.3734C9.68217 26.9184 8.58916 25.8271 7.13179 25.8271ZM33 25.8271C31.5426 25.8271 30.4496 26.9184 30.4496 28.3734C30.4496 29.8285 31.5426 30.9198 33 30.9198C34.4574 30.9198 35.5504 29.8285 35.5504 28.3734C35.5504 26.9184 34.4574 25.8271 33 25.8271ZM58.6861 25.8271C57.2287 25.8271 56.1357 26.9184 56.1357 28.3734C56.1357 29.8285 57.2287 30.9198 58.6861 30.9198C60.1434 30.9198 61.2365 29.8285 61.2365 28.3734C61.2365 26.9184 60.1434 25.8271 58.6861 25.8271ZM84.5543 25.8271C83.0969 25.8271 82.0039 26.9184 82.0039 28.3734C82.0039 29.8285 83.0969 30.9198 84.5543 30.9198C86.0116 30.9198 87.1046 29.8285 87.1046 28.3734C87.1046 26.9184 86.0116 25.8271 84.5543 25.8271ZM110.422 25.8271C108.965 25.8271 107.872 26.9184 107.872 28.3734C107.872 29.8285 108.965 30.9198 110.422 30.9198C111.88 30.9198 112.973 29.8285 112.973 28.3734C112.973 26.9184 111.88 25.8271 110.422 25.8271ZM136.291 25.8271C134.833 25.8271 133.74 26.9184 133.74 28.3734C133.74 29.8285 134.833 30.9198 136.291 30.9198C137.748 30.9198 138.841 29.8285 138.841 28.3734C138.841 26.9184 137.748 25.8271 136.291 25.8271ZM161.977 25.8271C160.519 25.8271 159.426 26.9184 159.426 28.3734C159.426 29.8285 160.519 30.9198 161.977 30.9198C163.434 30.9198 164.527 29.8285 164.527 28.3734C164.527 26.9184 163.434 25.8271 161.977 25.8271ZM187.845 25.8271C186.388 25.8271 185.295 26.9184 185.295 28.3734C185.295 29.8285 186.388 30.9198 187.845 30.9198C189.302 30.9198 190.395 29.8285 190.395 28.3734C190.395 26.9184 189.302 25.8271 187.845 25.8271ZM213.713 25.8271C212.256 25.8271 211.163 26.9184 211.163 28.3734C211.163 29.8285 212.256 30.9198 213.713 30.9198C215.171 30.9198 216.264 29.8285 216.264 28.3734C216.264 26.9184 215.171 25.8271 213.713 25.8271ZM239.581 25.8271C238.124 25.8271 237.031 26.9184 237.031 28.3734C237.031 29.8285 238.124 30.9198 239.581 30.9198C241.039 30.9198 242.132 29.8285 242.132 28.3734C242.132 26.9184 240.857 25.8271 239.581 25.8271ZM265.267 25.8271C263.81 25.8271 262.717 26.9184 262.717 28.3734C262.717 29.8285 263.81 30.9198 265.267 30.9198C266.725 30.9198 267.818 29.8285 267.818 28.3734C267.818 26.9184 266.725 25.8271 265.267 25.8271ZM-199.45 51.4723C-200.907 51.4723 -202 52.7455 -202 54.2006C-202 55.6556 -200.907 56.7469 -199.45 56.7469C-197.992 56.7469 -196.899 55.6556 -196.899 54.2006C-196.899 52.7455 -197.992 51.4723 -199.45 51.4723ZM-173.581 51.4723C-175.039 51.4723 -176.132 52.5636 -176.132 54.0187C-176.132 55.4737 -175.039 56.565 -173.581 56.565C-172.124 56.565 -171.031 55.4737 -171.031 54.0187C-171.031 52.7455 -172.124 51.4723 -173.581 51.4723ZM-147.713 51.4723C-149.171 51.4723 -150.264 52.5636 -150.264 54.0187C-150.264 55.4737 -149.171 56.565 -147.713 56.565C-146.256 56.565 -145.163 55.4737 -145.163 54.0187C-145.163 52.7455 -146.438 51.4723 -147.713 51.4723ZM-122.027 51.4723C-123.484 51.4723 -124.578 52.5636 -124.578 54.0187C-124.578 55.4737 -123.484 56.565 -122.027 56.565C-120.57 56.565 -119.477 55.4737 -119.477 54.0187C-119.295 52.7455 -120.57 51.4723 -122.027 51.4723ZM-96.1589 51.4723C-97.6163 51.4723 -98.7093 52.5636 -98.7093 54.0187C-98.7093 55.4737 -97.6163 56.565 -96.1589 56.565C-94.7016 56.565 -93.6085 55.4737 -93.6085 54.0187C-93.6085 52.7455 -94.7016 51.4723 -96.1589 51.4723ZM-70.2907 51.4723C-71.748 51.4723 -72.8411 52.5636 -72.8411 54.0187C-72.8411 55.4737 -71.748 56.565 -70.2907 56.565C-68.8333 56.565 -67.7403 55.4737 -67.7403 54.0187C-67.7403 52.7455 -68.8333 51.4723 -70.2907 51.4723ZM-44.4225 51.4723C-45.8798 51.4723 -46.9729 52.5636 -46.9729 54.0187C-46.9729 55.4737 -45.8798 56.565 -44.4225 56.565C-42.9651 56.565 -41.8721 55.4737 -41.8721 54.0187C-41.8721 52.7455 -43.1473 51.4723 -44.4225 51.4723ZM-18.7364 51.4723C-20.1938 51.4723 -21.2868 52.5636 -21.2868 54.0187C-21.2868 55.4737 -20.1938 56.565 -18.7364 56.565C-17.2791 56.565 -16.1861 55.4737 -16.1861 54.0187C-16.1861 52.7455 -17.2791 51.4723 -18.7364 51.4723ZM7.13179 51.4723C5.67442 51.4723 4.58141 52.5636 4.58141 54.0187C4.58141 55.4737 5.67442 56.565 7.13179 56.565C8.58916 56.565 9.68217 55.4737 9.68217 54.0187C9.68217 52.7455 8.58916 51.4723 7.13179 51.4723ZM33 51.4723C31.5426 51.4723 30.4496 52.5636 30.4496 54.0187C30.4496 55.4737 31.5426 56.565 33 56.565C34.4574 56.565 35.5504 55.4737 35.5504 54.0187C35.5504 52.7455 34.4574 51.4723 33 51.4723ZM58.6861 51.4723C57.2287 51.4723 56.1357 52.5636 56.1357 54.0187C56.1357 55.4737 57.2287 56.565 58.6861 56.565C60.1434 56.565 61.2365 55.4737 61.2365 54.0187C61.4186 52.7455 60.1434 51.4723 58.6861 51.4723ZM84.5543 51.4723C83.0969 51.4723 82.0039 52.5636 82.0039 54.0187C82.0039 55.4737 83.0969 56.565 84.5543 56.565C86.0116 56.565 87.1046 55.4737 87.1046 54.0187C87.1046 52.7455 86.0116 51.4723 84.5543 51.4723ZM110.422 51.4723C108.965 51.4723 107.872 52.5636 107.872 54.0187C107.872 55.4737 108.965 56.565 110.422 56.565C111.88 56.565 112.973 55.4737 112.973 54.0187C112.973 52.7455 111.88 51.4723 110.422 51.4723ZM136.291 51.4723C134.833 51.4723 133.74 52.5636 133.74 54.0187C133.74 55.4737 134.833 56.565 136.291 56.565C137.748 56.565 138.841 55.4737 138.841 54.0187C138.841 52.7455 137.748 51.4723 136.291 51.4723ZM161.977 51.4723C160.519 51.4723 159.426 52.5636 159.426 54.0187C159.426 55.4737 160.519 56.565 161.977 56.565C163.434 56.565 164.527 55.4737 164.527 54.0187C164.709 52.7455 163.434 51.4723 161.977 51.4723ZM187.845 51.4723C186.388 51.4723 185.295 52.5636 185.295 54.0187C185.295 55.4737 186.388 56.565 187.845 56.565C189.302 56.565 190.395 55.4737 190.395 54.0187C190.395 52.7455 189.302 51.4723 187.845 51.4723ZM213.713 51.4723C212.256 51.4723 211.163 52.5636 211.163 54.0187C211.163 55.4737 212.256 56.565 213.713 56.565C215.171 56.565 216.264 55.4737 216.264 54.0187C216.264 52.7455 215.171 51.4723 213.713 51.4723ZM239.581 51.4723C238.124 51.4723 237.031 52.5636 237.031 54.0187C237.031 55.4737 238.124 56.565 239.581 56.565C241.039 56.565 242.132 55.4737 242.132 54.0187C242.132 52.7455 240.857 51.4723 239.581 51.4723ZM265.267 51.4723C263.81 51.4723 262.717 52.5636 262.717 54.0187C262.717 55.4737 263.81 56.565 265.267 56.565C266.725 56.565 267.818 55.4737 267.818 54.0187C268 52.7455 266.725 51.4723 265.267 51.4723ZM-199.45 77.2994C-200.907 77.2994 -202 78.3907 -202 79.8458C-202 81.3008 -200.907 82.3921 -199.45 82.3921C-197.992 82.3921 -196.899 81.3008 -196.899 79.8458C-196.899 78.3907 -197.992 77.2994 -199.45 77.2994ZM-173.581 77.2994C-175.039 77.2994 -176.132 78.3907 -176.132 79.8458C-176.132 81.3008 -175.039 82.3921 -173.581 82.3921C-172.124 82.3921 -171.031 81.3008 -171.031 79.8458C-171.031 78.3907 -172.124 77.2994 -173.581 77.2994ZM-147.713 77.2994C-149.171 77.2994 -150.264 78.3907 -150.264 79.8458C-150.264 81.3008 -149.171 82.3921 -147.713 82.3921C-146.256 82.3921 -145.163 81.3008 -145.163 79.8458C-145.163 78.3907 -146.438 77.2994 -147.713 77.2994ZM-122.027 77.2994C-123.484 77.2994 -124.578 78.3907 -124.578 79.8458C-124.578 81.3008 -123.484 82.3921 -122.027 82.3921C-120.57 82.3921 -119.477 81.3008 -119.477 79.8458C-119.477 78.3907 -120.57 77.2994 -122.027 77.2994ZM-96.1589 77.2994C-97.6163 77.2994 -98.7093 78.3907 -98.7093 79.8458C-98.7093 81.3008 -97.6163 82.3921 -96.1589 82.3921C-94.7016 82.3921 -93.6085 81.3008 -93.6085 79.8458C-93.6085 78.3907 -94.7016 77.2994 -96.1589 77.2994ZM-70.2907 77.2994C-71.748 77.2994 -72.8411 78.3907 -72.8411 79.8458C-72.8411 81.3008 -71.748 82.3921 -70.2907 82.3921C-68.8333 82.3921 -67.7403 81.3008 -67.7403 79.8458C-67.7403 78.3907 -68.8333 77.2994 -70.2907 77.2994ZM-44.4225 77.2994C-45.8798 77.2994 -46.9729 78.3907 -46.9729 79.8458C-46.9729 81.3008 -45.8798 82.3921 -44.4225 82.3921C-42.9651 82.3921 -41.8721 81.3008 -41.8721 79.8458C-41.8721 78.3907 -43.1473 77.2994 -44.4225 77.2994ZM-18.7364 77.2994C-20.1938 77.2994 -21.2868 78.3907 -21.2868 79.8458C-21.2868 81.3008 -20.1938 82.3921 -18.7364 82.3921C-17.2791 82.3921 -16.1861 81.3008 -16.1861 79.8458C-16.1861 78.3907 -17.2791 77.2994 -18.7364 77.2994ZM7.13179 77.2994C5.67442 77.2994 4.58141 78.3907 4.58141 79.8458C4.58141 81.3008 5.67442 82.3921 7.13179 82.3921C8.58916 82.3921 9.68217 81.3008 9.68217 79.8458C9.68217 78.3907 8.58916 77.2994 7.13179 77.2994ZM33 77.2994C31.5426 77.2994 30.4496 78.3907 30.4496 79.8458C30.4496 81.3008 31.5426 82.3921 33 82.3921C34.4574 82.3921 35.5504 81.3008 35.5504 79.8458C35.5504 78.3907 34.4574 77.2994 33 77.2994ZM58.6861 77.2994C57.2287 77.2994 56.1357 78.3907 56.1357 79.8458C56.1357 81.3008 57.2287 82.3921 58.6861 82.3921C60.1434 82.3921 61.2365 81.3008 61.2365 79.8458C61.2365 78.3907 60.1434 77.2994 58.6861 77.2994ZM84.5543 77.2994C83.0969 77.2994 82.0039 78.3907 82.0039 79.8458C82.0039 81.3008 83.0969 82.3921 84.5543 82.3921C86.0116 82.3921 87.1046 81.3008 87.1046 79.8458C87.1046 78.3907 86.0116 77.2994 84.5543 77.2994ZM110.422 77.2994C108.965 77.2994 107.872 78.3907 107.872 79.8458C107.872 81.3008 108.965 82.3921 110.422 82.3921C111.88 82.3921 112.973 81.3008 112.973 79.8458C112.973 78.3907 111.88 77.2994 110.422 77.2994ZM136.291 77.2994C134.833 77.2994 133.74 78.3907 133.74 79.8458C133.74 81.3008 134.833 82.3921 136.291 82.3921C137.748 82.3921 138.841 81.3008 138.841 79.8458C138.841 78.3907 137.748 77.2994 136.291 77.2994ZM161.977 77.2994C160.519 77.2994 159.426 78.3907 159.426 79.8458C159.426 81.3008 160.519 82.3921 161.977 82.3921C163.434 82.3921 164.527 81.3008 164.527 79.8458C164.527 78.3907 163.434 77.2994 161.977 77.2994ZM187.845 77.2994C186.388 77.2994 185.295 78.3907 185.295 79.8458C185.295 81.3008 186.388 82.3921 187.845 82.3921C189.302 82.3921 190.395 81.3008 190.395 79.8458C190.395 78.3907 189.302 77.2994 187.845 77.2994ZM213.713 77.2994C212.256 77.2994 211.163 78.3907 211.163 79.8458C211.163 81.3008 212.256 82.3921 213.713 82.3921C215.171 82.3921 216.264 81.3008 216.264 79.8458C216.264 78.3907 215.171 77.2994 213.713 77.2994ZM239.581 77.2994C238.124 77.2994 237.031 78.3907 237.031 79.8458C237.031 81.3008 238.124 82.3921 239.581 82.3921C241.039 82.3921 242.132 81.3008 242.132 79.8458C242.132 78.3907 240.857 77.2994 239.581 77.2994ZM265.267 77.2994C263.81 77.2994 262.717 78.3907 262.717 79.8458C262.717 81.3008 263.81 82.3921 265.267 82.3921C266.725 82.3921 267.818 81.3008 267.818 79.8458C267.818 78.3907 266.725 77.2994 265.267 77.2994ZM-199.45 103.127C-200.907 103.127 -202 104.218 -202 105.673C-202 107.128 -200.907 108.219 -199.45 108.219C-197.992 108.219 -196.899 107.128 -196.899 105.673C-196.899 104.218 -197.992 103.127 -199.45 103.127ZM-173.581 103.127C-175.039 103.127 -176.132 104.218 -176.132 105.673C-176.132 107.128 -175.039 108.219 -173.581 108.219C-172.124 108.219 -171.031 107.128 -171.031 105.673C-171.031 104.218 -172.124 103.127 -173.581 103.127ZM-147.713 103.127C-149.171 103.127 -150.264 104.218 -150.264 105.673C-150.264 107.128 -149.171 108.219 -147.713 108.219C-146.256 108.219 -145.163 107.128 -145.163 105.673C-145.163 104.218 -146.438 103.127 -147.713 103.127ZM-122.027 103.127C-123.484 103.127 -124.578 104.218 -124.578 105.673C-124.578 107.128 -123.484 108.219 -122.027 108.219C-120.57 108.219 -119.477 107.128 -119.477 105.673C-119.295 104.218 -120.57 103.127 -122.027 103.127ZM-96.1589 103.127C-97.6163 103.127 -98.7093 104.218 -98.7093 105.673C-98.7093 107.128 -97.6163 108.219 -96.1589 108.219C-94.7016 108.219 -93.6085 107.128 -93.6085 105.673C-93.6085 104.218 -94.7016 103.127 -96.1589 103.127ZM-70.2907 103.127C-71.748 103.127 -72.8411 104.218 -72.8411 105.673C-72.8411 107.128 -71.748 108.219 -70.2907 108.219C-68.8333 108.219 -67.7403 107.128 -67.7403 105.673C-67.7403 104.218 -68.8333 103.127 -70.2907 103.127ZM-44.4225 103.127C-45.8798 103.127 -46.9729 104.218 -46.9729 105.673C-46.9729 107.128 -45.8798 108.219 -44.4225 108.219C-42.9651 108.219 -41.8721 107.128 -41.8721 105.673C-41.8721 104.218 -43.1473 103.127 -44.4225 103.127ZM-18.7364 103.127C-20.1938 103.127 -21.2868 104.218 -21.2868 105.673C-21.2868 107.128 -20.1938 108.219 -18.7364 108.219C-17.2791 108.219 -16.1861 107.128 -16.1861 105.673C-16.1861 104.218 -17.2791 103.127 -18.7364 103.127ZM7.13179 103.127C5.67442 103.127 4.58141 104.218 4.58141 105.673C4.58141 107.128 5.67442 108.219 7.13179 108.219C8.58916 108.219 9.68217 107.128 9.68217 105.673C9.68217 104.218 8.58916 103.127 7.13179 103.127ZM33 103.127C31.5426 103.127 30.4496 104.218 30.4496 105.673C30.4496 107.128 31.5426 108.219 33 108.219C34.4574 108.219 35.5504 107.128 35.5504 105.673C35.5504 104.218 34.4574 103.127 33 103.127ZM58.6861 103.127C57.2287 103.127 56.1357 104.218 56.1357 105.673C56.1357 107.128 57.2287 108.219 58.6861 108.219C60.1434 108.219 61.2365 107.128 61.2365 105.673C61.4186 104.218 60.1434 103.127 58.6861 103.127ZM84.5543 103.127C83.0969 103.127 82.0039 104.218 82.0039 105.673C82.0039 107.128 83.0969 108.219 84.5543 108.219C86.0116 108.219 87.1046 107.128 87.1046 105.673C87.1046 104.218 86.0116 103.127 84.5543 103.127ZM110.422 103.127C108.965 103.127 107.872 104.218 107.872 105.673C107.872 107.128 108.965 108.219 110.422 108.219C111.88 108.219 112.973 107.128 112.973 105.673C112.973 104.218 111.88 103.127 110.422 103.127ZM136.291 103.127C134.833 103.127 133.74 104.218 133.74 105.673C133.74 107.128 134.833 108.219 136.291 108.219C137.748 108.219 138.841 107.128 138.841 105.673C138.841 104.218 137.748 103.127 136.291 103.127ZM161.977 103.127C160.519 103.127 159.426 104.218 159.426 105.673C159.426 107.128 160.519 108.219 161.977 108.219C163.434 108.219 164.527 107.128 164.527 105.673C164.709 104.218 163.434 103.127 161.977 103.127ZM187.845 103.127C186.388 103.127 185.295 104.218 185.295 105.673C185.295 107.128 186.388 108.219 187.845 108.219C189.302 108.219 190.395 107.128 190.395 105.673C190.395 104.218 189.302 103.127 187.845 103.127ZM213.713 103.127C212.256 103.127 211.163 104.218 211.163 105.673C211.163 107.128 212.256 108.219 213.713 108.219C215.171 108.219 216.264 107.128 216.264 105.673C216.264 104.218 215.171 103.127 213.713 103.127ZM239.581 103.127C238.124 103.127 237.031 104.218 237.031 105.673C237.031 107.128 238.124 108.219 239.581 108.219C241.039 108.219 242.132 107.128 242.132 105.673C242.132 104.218 240.857 103.127 239.581 103.127ZM265.267 103.127C263.81 103.127 262.717 104.218 262.717 105.673C262.717 107.128 263.81 108.219 265.267 108.219C266.725 108.219 267.818 107.128 267.818 105.673C268 104.218 266.725 103.127 265.267 103.127ZM-199.45 128.954C-200.907 128.954 -202 130.045 -202 131.5C-202 132.955 -200.907 134.046 -199.45 134.046C-197.992 134.046 -196.899 132.955 -196.899 131.5C-196.899 130.045 -197.992 128.954 -199.45 128.954ZM-173.581 128.954C-175.039 128.954 -176.132 130.045 -176.132 131.5C-176.132 132.955 -175.039 134.046 -173.581 134.046C-172.124 134.046 -171.031 132.955 -171.031 131.5C-171.031 130.045 -172.124 128.954 -173.581 128.954ZM-147.713 128.954C-149.171 128.954 -150.264 130.045 -150.264 131.5C-150.264 132.955 -149.171 134.046 -147.713 134.046C-146.256 134.046 -145.163 132.955 -145.163 131.5C-145.163 130.045 -146.438 128.954 -147.713 128.954ZM-122.027 128.954C-123.484 128.954 -124.578 130.045 -124.578 131.5C-124.578 132.955 -123.484 134.046 -122.027 134.046C-120.57 134.046 -119.477 132.955 -119.477 131.5C-119.295 130.045 -120.57 128.954 -122.027 128.954ZM-96.1589 128.954C-97.6163 128.954 -98.7093 130.045 -98.7093 131.5C-98.7093 132.955 -97.6163 134.046 -96.1589 134.046C-94.7016 134.046 -93.6085 132.955 -93.6085 131.5C-93.6085 130.045 -94.7016 128.954 -96.1589 128.954ZM-70.2907 128.954C-71.748 128.954 -72.8411 130.045 -72.8411 131.5C-72.8411 132.955 -71.748 134.046 -70.2907 134.046C-68.8333 134.046 -67.7403 132.955 -67.7403 131.5C-67.7403 130.045 -68.8333 128.954 -70.2907 128.954ZM-44.4225 128.954C-45.8798 128.954 -46.9729 130.045 -46.9729 131.5C-46.9729 132.955 -45.8798 134.046 -44.4225 134.046C-42.9651 134.046 -41.8721 132.955 -41.8721 131.5C-41.8721 130.045 -43.1473 128.954 -44.4225 128.954ZM-18.7364 128.954C-20.1938 128.954 -21.2868 130.045 -21.2868 131.5C-21.2868 132.955 -20.1938 134.046 -18.7364 134.046C-17.2791 134.046 -16.1861 132.955 -16.1861 131.5C-16.1861 130.045 -17.2791 128.954 -18.7364 128.954ZM7.13179 128.954C5.67442 128.954 4.58141 130.045 4.58141 131.5C4.58141 132.955 5.67442 134.046 7.13179 134.046C8.58916 134.046 9.68217 132.955 9.68217 131.5C9.68217 130.045 8.58916 128.954 7.13179 128.954ZM33 128.954C31.5426 128.954 30.4496 130.045 30.4496 131.5C30.4496 132.955 31.5426 134.046 33 134.046C34.4574 134.046 35.5504 132.955 35.5504 131.5C35.5504 130.045 34.4574 128.954 33 128.954ZM58.6861 128.954C57.2287 128.954 56.1357 130.045 56.1357 131.5C56.1357 132.955 57.2287 134.046 58.6861 134.046C60.1434 134.046 61.2365 132.955 61.2365 131.5C61.4186 130.045 60.1434 128.954 58.6861 128.954ZM84.5543 128.954C83.0969 128.954 82.0039 130.045 82.0039 131.5C82.0039 132.955 83.0969 134.046 84.5543 134.046C86.0116 134.046 87.1046 132.955 87.1046 131.5C87.1046 130.045 86.0116 128.954 84.5543 128.954ZM110.422 128.954C108.965 128.954 107.872 130.045 107.872 131.5C107.872 132.955 108.965 134.046 110.422 134.046C111.88 134.046 112.973 132.955 112.973 131.5C112.973 130.045 111.88 128.954 110.422 128.954ZM136.291 128.954C134.833 128.954 133.74 130.045 133.74 131.5C133.74 132.955 134.833 134.046 136.291 134.046C137.748 134.046 138.841 132.955 138.841 131.5C138.841 130.045 137.748 128.954 136.291 128.954ZM161.977 128.954C160.519 128.954 159.426 130.045 159.426 131.5C159.426 132.955 160.519 134.046 161.977 134.046C163.434 134.046 164.527 132.955 164.527 131.5C164.709 130.045 163.434 128.954 161.977 128.954ZM187.845 128.954C186.388 128.954 185.295 130.045 185.295 131.5C185.295 132.955 186.388 134.046 187.845 134.046C189.302 134.046 190.395 132.955 190.395 131.5C190.395 130.045 189.302 128.954 187.845 128.954ZM213.713 128.954C212.256 128.954 211.163 130.045 211.163 131.5C211.163 132.955 212.256 134.046 213.713 134.046C215.171 134.046 216.264 132.955 216.264 131.5C216.264 130.045 215.171 128.954 213.713 128.954ZM239.581 128.954C238.124 128.954 237.031 130.045 237.031 131.5C237.031 132.955 238.124 134.046 239.581 134.046C241.039 134.046 242.132 132.955 242.132 131.5C242.132 130.045 240.857 128.954 239.581 128.954ZM265.267 128.954C263.81 128.954 262.717 130.045 262.717 131.5C262.717 132.955 263.81 134.046 265.267 134.046C266.725 134.046 267.818 132.955 267.818 131.5C268 130.045 266.725 128.954 265.267 128.954ZM-199.45 154.599C-200.907 154.599 -202 155.872 -202 157.327C-202 158.782 -200.907 159.873 -199.45 159.873C-197.992 159.873 -196.899 158.782 -196.899 157.327C-196.899 155.872 -197.992 154.599 -199.45 154.599ZM-173.581 154.599C-175.039 154.599 -176.132 155.69 -176.132 157.145C-176.132 158.6 -175.039 159.692 -173.581 159.692C-172.124 159.692 -171.031 158.6 -171.031 157.145C-171.031 155.872 -172.124 154.599 -173.581 154.599ZM-147.713 154.599C-149.171 154.599 -150.264 155.69 -150.264 157.145C-150.264 158.6 -149.171 159.692 -147.713 159.692C-146.256 159.692 -145.163 158.6 -145.163 157.145C-145.163 155.872 -146.438 154.599 -147.713 154.599ZM-122.027 154.599C-123.484 154.599 -124.578 155.69 -124.578 157.145C-124.578 158.6 -123.484 159.692 -122.027 159.692C-120.57 159.692 -119.477 158.6 -119.477 157.145C-119.295 155.872 -120.57 154.599 -122.027 154.599ZM-96.1589 154.599C-97.6163 154.599 -98.7093 155.69 -98.7093 157.145C-98.7093 158.6 -97.6163 159.692 -96.1589 159.692C-94.7016 159.692 -93.6085 158.6 -93.6085 157.145C-93.6085 155.872 -94.7016 154.599 -96.1589 154.599ZM-70.2907 154.599C-71.748 154.599 -72.8411 155.69 -72.8411 157.145C-72.8411 158.6 -71.748 159.692 -70.2907 159.692C-68.8333 159.692 -67.7403 158.6 -67.7403 157.145C-67.7403 155.872 -68.8333 154.599 -70.2907 154.599ZM-44.4225 154.599C-45.8798 154.599 -46.9729 155.69 -46.9729 157.145C-46.9729 158.6 -45.8798 159.692 -44.4225 159.692C-42.9651 159.692 -41.8721 158.6 -41.8721 157.145C-41.8721 155.872 -43.1473 154.599 -44.4225 154.599ZM-18.7364 154.599C-20.1938 154.599 -21.2868 155.69 -21.2868 157.145C-21.2868 158.6 -20.1938 159.692 -18.7364 159.692C-17.2791 159.692 -16.1861 158.6 -16.1861 157.145C-16.1861 155.872 -17.2791 154.599 -18.7364 154.599ZM7.13179 154.599C5.67442 154.599 4.58141 155.69 4.58141 157.145C4.58141 158.6 5.67442 159.692 7.13179 159.692C8.58916 159.692 9.68217 158.6 9.68217 157.145C9.68217 155.872 8.58916 154.599 7.13179 154.599ZM33 154.599C31.5426 154.599 30.4496 155.69 30.4496 157.145C30.4496 158.6 31.5426 159.692 33 159.692C34.4574 159.692 35.5504 158.6 35.5504 157.145C35.5504 155.872 34.4574 154.599 33 154.599ZM58.6861 154.599C57.2287 154.599 56.1357 155.69 56.1357 157.145C56.1357 158.6 57.2287 159.692 58.6861 159.692C60.1434 159.692 61.2365 158.6 61.2365 157.145C61.4186 155.872 60.1434 154.599 58.6861 154.599ZM84.5543 154.599C83.0969 154.599 82.0039 155.69 82.0039 157.145C82.0039 158.6 83.0969 159.692 84.5543 159.692C86.0116 159.692 87.1046 158.6 87.1046 157.145C87.1046 155.872 86.0116 154.599 84.5543 154.599ZM110.422 154.599C108.965 154.599 107.872 155.69 107.872 157.145C107.872 158.6 108.965 159.692 110.422 159.692C111.88 159.692 112.973 158.6 112.973 157.145C112.973 155.872 111.88 154.599 110.422 154.599ZM136.291 154.599C134.833 154.599 133.74 155.69 133.74 157.145C133.74 158.6 134.833 159.692 136.291 159.692C137.748 159.692 138.841 158.6 138.841 157.145C138.841 155.872 137.748 154.599 136.291 154.599ZM161.977 154.599C160.519 154.599 159.426 155.69 159.426 157.145C159.426 158.6 160.519 159.692 161.977 159.692C163.434 159.692 164.527 158.6 164.527 157.145C164.709 155.872 163.434 154.599 161.977 154.599ZM187.845 154.599C186.388 154.599 185.295 155.69 185.295 157.145C185.295 158.6 186.388 159.692 187.845 159.692C189.302 159.692 190.395 158.6 190.395 157.145C190.395 155.872 189.302 154.599 187.845 154.599ZM213.713 154.599C212.256 154.599 211.163 155.69 211.163 157.145C211.163 158.6 212.256 159.692 213.713 159.692C215.171 159.692 216.264 158.6 216.264 157.145C216.264 155.872 215.171 154.599 213.713 154.599ZM239.581 154.599C238.124 154.599 237.031 155.69 237.031 157.145C237.031 158.6 238.124 159.692 239.581 159.692C241.039 159.692 242.132 158.6 242.132 157.145C242.132 155.872 240.857 154.599 239.581 154.599ZM265.267 154.599C263.81 154.599 262.717 155.69 262.717 157.145C262.717 158.6 263.81 159.692 265.267 159.692C266.725 159.692 267.818 158.6 267.818 157.145C268 155.872 266.725 154.599 265.267 154.599ZM-199.45 180.426C-200.907 180.426 -202 181.517 -202 182.972C-202 184.427 -200.907 185.519 -199.45 185.519C-197.992 185.519 -196.899 184.427 -196.899 182.972C-196.899 181.517 -197.992 180.426 -199.45 180.426ZM-173.581 180.426C-175.039 180.426 -176.132 181.517 -176.132 182.972C-176.132 184.427 -175.039 185.519 -173.581 185.519C-172.124 185.519 -171.031 184.427 -171.031 182.972C-171.031 181.517 -172.124 180.426 -173.581 180.426ZM-147.713 180.426C-149.171 180.426 -150.264 181.517 -150.264 182.972C-150.264 184.427 -149.171 185.519 -147.713 185.519C-146.256 185.519 -145.163 184.427 -145.163 182.972C-145.163 181.517 -146.438 180.426 -147.713 180.426ZM-122.027 180.426C-123.484 180.426 -124.578 181.517 -124.578 182.972C-124.578 184.427 -123.484 185.519 -122.027 185.519C-120.57 185.519 -119.477 184.427 -119.477 182.972C-119.477 181.517 -120.57 180.426 -122.027 180.426ZM-96.1589 180.426C-97.6163 180.426 -98.7093 181.517 -98.7093 182.972C-98.7093 184.427 -97.6163 185.519 -96.1589 185.519C-94.7016 185.519 -93.6085 184.427 -93.6085 182.972C-93.6085 181.517 -94.7016 180.426 -96.1589 180.426ZM-70.2907 180.426C-71.748 180.426 -72.8411 181.517 -72.8411 182.972C-72.8411 184.427 -71.748 185.519 -70.2907 185.519C-68.8333 185.519 -67.7403 184.427 -67.7403 182.972C-67.7403 181.517 -68.8333 180.426 -70.2907 180.426ZM-44.4225 180.426C-45.8798 180.426 -46.9729 181.517 -46.9729 182.972C-46.9729 184.427 -45.8798 185.519 -44.4225 185.519C-42.9651 185.519 -41.8721 184.427 -41.8721 182.972C-41.8721 181.517 -43.1473 180.426 -44.4225 180.426ZM-18.7364 180.426C-20.1938 180.426 -21.2868 181.517 -21.2868 182.972C-21.2868 184.427 -20.1938 185.519 -18.7364 185.519C-17.2791 185.519 -16.1861 184.427 -16.1861 182.972C-16.1861 181.517 -17.2791 180.426 -18.7364 180.426ZM7.13179 180.426C5.67442 180.426 4.58141 181.517 4.58141 182.972C4.58141 184.427 5.67442 185.519 7.13179 185.519C8.58916 185.519 9.68217 184.427 9.68217 182.972C9.68217 181.517 8.58916 180.426 7.13179 180.426ZM33 180.426C31.5426 180.426 30.4496 181.517 30.4496 182.972C30.4496 184.427 31.5426 185.519 33 185.519C34.4574 185.519 35.5504 184.427 35.5504 182.972C35.5504 181.517 34.4574 180.426 33 180.426ZM58.6861 180.426C57.2287 180.426 56.1357 181.517 56.1357 182.972C56.1357 184.427 57.2287 185.519 58.6861 185.519C60.1434 185.519 61.2365 184.427 61.2365 182.972C61.2365 181.517 60.1434 180.426 58.6861 180.426ZM84.5543 180.426C83.0969 180.426 82.0039 181.517 82.0039 182.972C82.0039 184.427 83.0969 185.519 84.5543 185.519C86.0116 185.519 87.1046 184.427 87.1046 182.972C87.1046 181.517 86.0116 180.426 84.5543 180.426ZM110.422 180.426C108.965 180.426 107.872 181.517 107.872 182.972C107.872 184.427 108.965 185.519 110.422 185.519C111.88 185.519 112.973 184.427 112.973 182.972C112.973 181.517 111.88 180.426 110.422 180.426ZM136.291 180.426C134.833 180.426 133.74 181.517 133.74 182.972C133.74 184.427 134.833 185.519 136.291 185.519C137.748 185.519 138.841 184.427 138.841 182.972C138.841 181.517 137.748 180.426 136.291 180.426ZM161.977 180.426C160.519 180.426 159.426 181.517 159.426 182.972C159.426 184.427 160.519 185.519 161.977 185.519C163.434 185.519 164.527 184.427 164.527 182.972C164.527 181.517 163.434 180.426 161.977 180.426ZM187.845 180.426C186.388 180.426 185.295 181.517 185.295 182.972C185.295 184.427 186.388 185.519 187.845 185.519C189.302 185.519 190.395 184.427 190.395 182.972C190.395 181.517 189.302 180.426 187.845 180.426ZM213.713 180.426C212.256 180.426 211.163 181.517 211.163 182.972C211.163 184.427 212.256 185.519 213.713 185.519C215.171 185.519 216.264 184.427 216.264 182.972C216.264 181.517 215.171 180.426 213.713 180.426ZM239.581 180.426C238.124 180.426 237.031 181.517 237.031 182.972C237.031 184.427 238.124 185.519 239.581 185.519C241.039 185.519 242.132 184.427 242.132 182.972C242.132 181.517 240.857 180.426 239.581 180.426ZM265.267 180.426C263.81 180.426 262.717 181.517 262.717 182.972C262.717 184.427 263.81 185.519 265.267 185.519C266.725 185.519 267.818 184.427 267.818 182.972C267.818 181.517 266.725 180.426 265.267 180.426ZM-199.45 206.253C-200.907 206.253 -202 207.344 -202 208.799C-202 210.255 -200.907 211.346 -199.45 211.346C-197.992 211.346 -196.899 210.255 -196.899 208.799C-196.899 207.344 -197.992 206.253 -199.45 206.253ZM-173.581 206.253C-175.039 206.253 -176.132 207.344 -176.132 208.799C-176.132 210.255 -175.039 211.346 -173.581 211.346C-172.124 211.346 -171.031 210.255 -171.031 208.799C-171.031 207.344 -172.124 206.253 -173.581 206.253ZM-147.713 206.253C-149.171 206.253 -150.264 207.344 -150.264 208.799C-150.264 210.255 -149.171 211.346 -147.713 211.346C-146.256 211.346 -145.163 210.255 -145.163 208.799C-145.163 207.344 -146.438 206.253 -147.713 206.253ZM-122.027 206.253C-123.484 206.253 -124.578 207.344 -124.578 208.799C-124.578 210.255 -123.484 211.346 -122.027 211.346C-120.57 211.346 -119.477 210.255 -119.477 208.799C-119.295 207.344 -120.57 206.253 -122.027 206.253ZM-96.1589 206.253C-97.6163 206.253 -98.7093 207.344 -98.7093 208.799C-98.7093 210.255 -97.6163 211.346 -96.1589 211.346C-94.7016 211.346 -93.6085 210.255 -93.6085 208.799C-93.6085 207.344 -94.7016 206.253 -96.1589 206.253ZM-70.2907 206.253C-71.748 206.253 -72.8411 207.344 -72.8411 208.799C-72.8411 210.255 -71.748 211.346 -70.2907 211.346C-68.8333 211.346 -67.7403 210.255 -67.7403 208.799C-67.7403 207.344 -68.8333 206.253 -70.2907 206.253ZM-44.4225 206.253C-45.8798 206.253 -46.9729 207.344 -46.9729 208.799C-46.9729 210.255 -45.8798 211.346 -44.4225 211.346C-42.9651 211.346 -41.8721 210.255 -41.8721 208.799C-41.8721 207.344 -43.1473 206.253 -44.4225 206.253ZM-18.7364 206.253C-20.1938 206.253 -21.2868 207.344 -21.2868 208.799C-21.2868 210.255 -20.1938 211.346 -18.7364 211.346C-17.2791 211.346 -16.1861 210.255 -16.1861 208.799C-16.1861 207.344 -17.2791 206.253 -18.7364 206.253ZM7.13179 206.253C5.67442 206.253 4.58141 207.344 4.58141 208.799C4.58141 210.255 5.67442 211.346 7.13179 211.346C8.58916 211.346 9.68217 210.255 9.68217 208.799C9.68217 207.344 8.58916 206.253 7.13179 206.253ZM33 206.253C31.5426 206.253 30.4496 207.344 30.4496 208.799C30.4496 210.255 31.5426 211.346 33 211.346C34.4574 211.346 35.5504 210.255 35.5504 208.799C35.5504 207.344 34.4574 206.253 33 206.253ZM58.6861 206.253C57.2287 206.253 56.1357 207.344 56.1357 208.799C56.1357 210.255 57.2287 211.346 58.6861 211.346C60.1434 211.346 61.2365 210.255 61.2365 208.799C61.4186 207.344 60.1434 206.253 58.6861 206.253ZM84.5543 206.253C83.0969 206.253 82.0039 207.344 82.0039 208.799C82.0039 210.255 83.0969 211.346 84.5543 211.346C86.0116 211.346 87.1046 210.255 87.1046 208.799C87.1046 207.344 86.0116 206.253 84.5543 206.253ZM110.422 206.253C108.965 206.253 107.872 207.344 107.872 208.799C107.872 210.255 108.965 211.346 110.422 211.346C111.88 211.346 112.973 210.255 112.973 208.799C112.973 207.344 111.88 206.253 110.422 206.253ZM136.291 206.253C134.833 206.253 133.74 207.344 133.74 208.799C133.74 210.255 134.833 211.346 136.291 211.346C137.748 211.346 138.841 210.255 138.841 208.799C138.841 207.344 137.748 206.253 136.291 206.253ZM161.977 206.253C160.519 206.253 159.426 207.344 159.426 208.799C159.426 210.255 160.519 211.346 161.977 211.346C163.434 211.346 164.527 210.255 164.527 208.799C164.709 207.344 163.434 206.253 161.977 206.253ZM187.845 206.253C186.388 206.253 185.295 207.344 185.295 208.799C185.295 210.255 186.388 211.346 187.845 211.346C189.302 211.346 190.395 210.255 190.395 208.799C190.395 207.344 189.302 206.253 187.845 206.253ZM213.713 206.253C212.256 206.253 211.163 207.344 211.163 208.799C211.163 210.255 212.256 211.346 213.713 211.346C215.171 211.346 216.264 210.255 216.264 208.799C216.264 207.344 215.171 206.253 213.713 206.253ZM239.581 206.253C238.124 206.253 237.031 207.344 237.031 208.799C237.031 210.255 238.124 211.346 239.581 211.346C241.039 211.346 242.132 210.255 242.132 208.799C242.132 207.344 240.857 206.253 239.581 206.253ZM265.267 206.253C263.81 206.253 262.717 207.344 262.717 208.799C262.717 210.255 263.81 211.346 265.267 211.346C266.725 211.346 267.818 210.255 267.818 208.799C268 207.344 266.725 206.253 265.267 206.253ZM-199.45 232.08C-200.907 232.08 -202 233.172 -202 234.627C-202 236.082 -200.907 237.173 -199.45 237.173C-197.992 237.173 -196.899 236.082 -196.899 234.627C-196.899 233.172 -197.992 232.08 -199.45 232.08ZM-173.581 232.08C-175.039 232.08 -176.132 233.172 -176.132 234.627C-176.132 236.082 -175.039 237.173 -173.581 237.173C-172.124 237.173 -171.031 236.082 -171.031 234.627C-171.031 233.172 -172.124 232.08 -173.581 232.08ZM-147.713 232.08C-149.171 232.08 -150.264 233.172 -150.264 234.627C-150.264 236.082 -149.171 237.173 -147.713 237.173C-146.256 237.173 -145.163 236.082 -145.163 234.627C-145.163 233.172 -146.438 232.08 -147.713 232.08ZM-122.027 232.08C-123.484 232.08 -124.578 233.172 -124.578 234.627C-124.578 236.082 -123.484 237.173 -122.027 237.173C-120.57 237.173 -119.477 236.082 -119.477 234.627C-119.477 233.172 -120.57 232.08 -122.027 232.08ZM-96.1589 232.08C-97.6163 232.08 -98.7093 233.172 -98.7093 234.627C-98.7093 236.082 -97.6163 237.173 -96.1589 237.173C-94.7016 237.173 -93.6085 236.082 -93.6085 234.627C-93.6085 233.172 -94.7016 232.08 -96.1589 232.08ZM-70.2907 232.08C-71.748 232.08 -72.8411 233.172 -72.8411 234.627C-72.8411 236.082 -71.748 237.173 -70.2907 237.173C-68.8333 237.173 -67.7403 236.082 -67.7403 234.627C-67.7403 233.172 -68.8333 232.08 -70.2907 232.08ZM-44.4225 232.08C-45.8798 232.08 -46.9729 233.172 -46.9729 234.627C-46.9729 236.082 -45.8798 237.173 -44.4225 237.173C-42.9651 237.173 -41.8721 236.082 -41.8721 234.627C-41.8721 233.172 -43.1473 232.08 -44.4225 232.08ZM-18.7364 232.08C-20.1938 232.08 -21.2868 233.172 -21.2868 234.627C-21.2868 236.082 -20.1938 237.173 -18.7364 237.173C-17.2791 237.173 -16.1861 236.082 -16.1861 234.627C-16.1861 233.172 -17.2791 232.08 -18.7364 232.08ZM7.13179 232.08C5.67442 232.08 4.58141 233.172 4.58141 234.627C4.58141 236.082 5.67442 237.173 7.13179 237.173C8.58916 237.173 9.68217 236.082 9.68217 234.627C9.68217 233.172 8.58916 232.08 7.13179 232.08ZM33 232.08C31.5426 232.08 30.4496 233.172 30.4496 234.627C30.4496 236.082 31.5426 237.173 33 237.173C34.4574 237.173 35.5504 236.082 35.5504 234.627C35.5504 233.172 34.4574 232.08 33 232.08ZM58.6861 232.08C57.2287 232.08 56.1357 233.172 56.1357 234.627C56.1357 236.082 57.2287 237.173 58.6861 237.173C60.1434 237.173 61.2365 236.082 61.2365 234.627C61.2365 233.172 60.1434 232.08 58.6861 232.08ZM84.5543 232.08C83.0969 232.08 82.0039 233.172 82.0039 234.627C82.0039 236.082 83.0969 237.173 84.5543 237.173C86.0116 237.173 87.1046 236.082 87.1046 234.627C87.1046 233.172 86.0116 232.08 84.5543 232.08ZM110.422 232.08C108.965 232.08 107.872 233.172 107.872 234.627C107.872 236.082 108.965 237.173 110.422 237.173C111.88 237.173 112.973 236.082 112.973 234.627C112.973 233.172 111.88 232.08 110.422 232.08ZM136.291 232.08C134.833 232.08 133.74 233.172 133.74 234.627C133.74 236.082 134.833 237.173 136.291 237.173C137.748 237.173 138.841 236.082 138.841 234.627C138.841 233.172 137.748 232.08 136.291 232.08ZM161.977 232.08C160.519 232.08 159.426 233.172 159.426 234.627C159.426 236.082 160.519 237.173 161.977 237.173C163.434 237.173 164.527 236.082 164.527 234.627C164.527 233.172 163.434 232.08 161.977 232.08ZM187.845 232.08C186.388 232.08 185.295 233.172 185.295 234.627C185.295 236.082 186.388 237.173 187.845 237.173C189.302 237.173 190.395 236.082 190.395 234.627C190.395 233.172 189.302 232.08 187.845 232.08ZM213.713 232.08C212.256 232.08 211.163 233.172 211.163 234.627C211.163 236.082 212.256 237.173 213.713 237.173C215.171 237.173 216.264 236.082 216.264 234.627C216.264 233.172 215.171 232.08 213.713 232.08ZM239.581 232.08C238.124 232.08 237.031 233.172 237.031 234.627C237.031 236.082 238.124 237.173 239.581 237.173C241.039 237.173 242.132 236.082 242.132 234.627C242.132 233.172 240.857 232.08 239.581 232.08ZM265.267 232.08C263.81 232.08 262.717 233.172 262.717 234.627C262.717 236.082 263.81 237.173 265.267 237.173C266.725 237.173 267.818 236.082 267.818 234.627C267.818 233.172 266.725 232.08 265.267 232.08ZM-199.45 257.725C-200.907 257.725 -202 258.817 -202 260.272C-202 261.727 -200.907 262.818 -199.45 262.818C-197.992 262.818 -196.899 261.727 -196.899 260.272C-196.899 258.999 -197.992 257.725 -199.45 257.725ZM-173.581 257.725C-175.039 257.725 -176.132 258.817 -176.132 260.272C-176.132 261.727 -175.039 262.818 -173.581 262.818C-172.124 262.818 -171.031 261.727 -171.031 260.272C-171.031 258.999 -172.124 257.725 -173.581 257.725ZM-147.713 257.725C-149.171 257.725 -150.264 258.817 -150.264 260.272C-150.264 261.727 -149.171 262.818 -147.713 262.818C-146.256 262.818 -145.163 261.727 -145.163 260.272C-145.163 258.999 -146.438 257.725 -147.713 257.725ZM-122.027 257.725C-123.484 257.725 -124.578 258.817 -124.578 260.272C-124.578 261.727 -123.484 262.818 -122.027 262.818C-120.57 262.818 -119.477 261.727 -119.477 260.272C-119.295 258.999 -120.57 257.725 -122.027 257.725ZM-96.1589 257.725C-97.6163 257.725 -98.7093 258.817 -98.7093 260.272C-98.7093 261.727 -97.6163 262.818 -96.1589 262.818C-94.7016 262.818 -93.6085 261.727 -93.6085 260.272C-93.6085 258.999 -94.7016 257.725 -96.1589 257.725ZM-70.2907 257.725C-71.748 257.725 -72.8411 258.817 -72.8411 260.272C-72.8411 261.727 -71.748 262.818 -70.2907 262.818C-68.8333 262.818 -67.7403 261.727 -67.7403 260.272C-67.7403 258.999 -68.8333 257.725 -70.2907 257.725ZM-44.4225 257.725C-45.8798 257.725 -46.9729 258.817 -46.9729 260.272C-46.9729 261.727 -45.8798 262.818 -44.4225 262.818C-42.9651 262.818 -41.8721 261.727 -41.8721 260.272C-41.8721 258.999 -43.1473 257.725 -44.4225 257.725ZM-18.7364 257.725C-20.1938 257.725 -21.2868 258.817 -21.2868 260.272C-21.2868 261.727 -20.1938 262.818 -18.7364 262.818C-17.2791 262.818 -16.1861 261.727 -16.1861 260.272C-16.1861 258.999 -17.2791 257.725 -18.7364 257.725ZM7.13179 257.725C5.67442 257.725 4.58141 258.817 4.58141 260.272C4.58141 261.727 5.67442 262.818 7.13179 262.818C8.58916 262.818 9.68217 261.727 9.68217 260.272C9.68217 258.999 8.58916 257.725 7.13179 257.725ZM33 257.725C31.5426 257.725 30.4496 258.817 30.4496 260.272C30.4496 261.727 31.5426 262.818 33 262.818C34.4574 262.818 35.5504 261.727 35.5504 260.272C35.5504 258.999 34.4574 257.725 33 257.725ZM58.6861 257.725C57.2287 257.725 56.1357 258.817 56.1357 260.272C56.1357 261.727 57.2287 262.818 58.6861 262.818C60.1434 262.818 61.2365 261.727 61.2365 260.272C61.4186 258.999 60.1434 257.725 58.6861 257.725ZM84.5543 257.725C83.0969 257.725 82.0039 258.817 82.0039 260.272C82.0039 261.727 83.0969 262.818 84.5543 262.818C86.0116 262.818 87.1046 261.727 87.1046 260.272C87.1046 258.999 86.0116 257.725 84.5543 257.725ZM110.422 257.725C108.965 257.725 107.872 258.817 107.872 260.272C107.872 261.727 108.965 262.818 110.422 262.818C111.88 262.818 112.973 261.727 112.973 260.272C112.973 258.999 111.88 257.725 110.422 257.725ZM136.291 257.725C134.833 257.725 133.74 258.817 133.74 260.272C133.74 261.727 134.833 262.818 136.291 262.818C137.748 262.818 138.841 261.727 138.841 260.272C138.841 258.999 137.748 257.725 136.291 257.725ZM161.977 257.725C160.519 257.725 159.426 258.817 159.426 260.272C159.426 261.727 160.519 262.818 161.977 262.818C163.434 262.818 164.527 261.727 164.527 260.272C164.709 258.999 163.434 257.725 161.977 257.725ZM187.845 257.725C186.388 257.725 185.295 258.817 185.295 260.272C185.295 261.727 186.388 262.818 187.845 262.818C189.302 262.818 190.395 261.727 190.395 260.272C190.395 258.999 189.302 257.725 187.845 257.725ZM213.713 257.725C212.256 257.725 211.163 258.817 211.163 260.272C211.163 261.727 212.256 262.818 213.713 262.818C215.171 262.818 216.264 261.727 216.264 260.272C216.264 258.999 215.171 257.725 213.713 257.725ZM239.581 257.725C238.124 257.725 237.031 258.817 237.031 260.272C237.031 261.727 238.124 262.818 239.581 262.818C241.039 262.818 242.132 261.727 242.132 260.272C242.132 258.999 240.857 257.725 239.581 257.725ZM265.267 257.725C263.81 257.725 262.717 258.817 262.717 260.272C262.717 261.727 263.81 262.818 265.267 262.818C266.725 262.818 267.818 261.727 267.818 260.272C268 258.999 266.725 257.725 265.267 257.725Z" fill="url(#paint0_linear_201_235)" fill-opacity="0.13"/>
<defs>
<linearGradient id="paint0_linear_201_235" x1="32.957" y1="0" x2="32.957" y2="262.94" gradientUnits="userSpaceOnUse">
<stop stop-color="#C4C4C4"/>
<stop offset="1" stop-color="#C4C4C4"/>
</linearGradient>
</defs>
</svg>
