<svg xmlns="http://www.w3.org/2000/svg" version="1.1" xmlns:xlink="http://www.w3.org/1999/xlink" xmlns:svgjs="http://svgjs.com/svgjs" width="512" height="512" x="0" y="0" viewBox="0 0 24 24" style="enable-background:new 0 0 512 512" xml:space="preserve"><g><path xmlns="http://www.w3.org/2000/svg" d="m10.5 21h-7c-.276 0-.5-.224-.5-.5v-18c0-.276.224-.5.5-.5h13c.276 0 .5.224.5.5v8c0 .276-.224.5-.5.5s-.5-.224-.5-.5v-7.5h-12v17h6.5c.276 0 .5.224.5.5s-.224.5-.5.5z" fill="#e43d30" data-original="#e43d30"></path><path xmlns="http://www.w3.org/2000/svg" d="m8.5 3h-3c-.276 0-.5-.224-.5-.5v-1c0-.827.673-1.5 1.5-1.5h1c.827 0 1.5.673 1.5 1.5v1c0 .276-.224.5-.5.5zm-2.5-1h2v-.5c0-.276-.224-.5-.5-.5h-1c-.276 0-.5.224-.5.5z" fill="#e43d30" data-original="#e43d30"></path><path xmlns="http://www.w3.org/2000/svg" d="m17.5 3h-15c-.276 0-.5-.224-.5-.5s.224-.5.5-.5h15c.276 0 .5.224.5.5s-.224.5-.5.5z" fill="#e43d30" data-original="#e43d30"></path><path xmlns="http://www.w3.org/2000/svg" d="m10.5 21h-8c-.276 0-.5-.224-.5-.5s.224-.5.5-.5h8c.276 0 .5.224.5.5s-.224.5-.5.5z" fill="#e43d30" data-original="#e43d30"></path><path xmlns="http://www.w3.org/2000/svg" d="m14.5 12h-12c-.276 0-.5-.224-.5-.5s.224-.5.5-.5h12c.276 0 .5.224.5.5s-.224.5-.5.5z" fill="#e43d30" data-original="#e43d30"></path><path xmlns="http://www.w3.org/2000/svg" d="m17.5 24c-2.481 0-4.5-2.019-4.5-4.5 0-2.66 3.958-7.143 4.126-7.332.189-.214.558-.214.747 0 .169.189 4.127 4.672 4.127 7.332 0 2.481-2.019 4.5-4.5 4.5zm0-10.733c-1.239 1.479-3.5 4.531-3.5 6.233 0 1.93 1.57 3.5 3.5 3.5s3.5-1.57 3.5-3.5c0-1.702-2.261-4.754-3.5-6.233z" fill="#e43d30" data-original="#e43d30"></path></g></svg>