<svg width="142" height="49" viewBox="0 0 142 49" fill="none" xmlns="http://www.w3.org/2000/svg">
<path d="M67.8885 21.7404V28.33C67.8885 28.33 77.6757 29.6817 77.5626 25.0634C77.4494 20.3886 67.8885 21.7404 67.8885 21.7404ZM59.5156 14.9254C72.5841 14.9254 86.1052 12.6726 86.1052 25.6266C86.1052 28.7243 83.7291 32.2162 80.1084 34.4691L86.7841 45.6208H78.2415L71.5092 34.9197H67.8319V45.6208H59.4024L59.5156 14.9254Z" fill="#626262"/>
<path d="M11.9371 18.812C39.4885 2.87288 83.3897 -6.75816 127.178 17.1223C127.178 17.1223 58.2144 -3.60414 25.0056 27.8798L36.6032 45.5085H27.1554L20.4797 36.666V45.6212H11.9936L11.9371 18.812Z" fill="#626262"/>
<path d="M37.2255 20.3887H56.9132V25.9082H45.8813V30.4703H56.9132V35.8772H45.8813V40.4392H56.9132V45.6209H37.2255V20.3887Z" fill="#626262"/>
<path d="M88.651 20.333H96.9108L102.738 29.5698L108.508 20.333H116.768V45.6215H108.508V34.1882L102.738 42.0732L96.9108 34.5261V45.6215H88.651V20.333Z" fill="#626262"/>
<path d="M127.8 20.333V45.6215H119.71V20.333H127.8Z" fill="#626262"/>
</svg>
