<svg xmlns="http://www.w3.org/2000/svg" version="1.1" xmlns:xlink="http://www.w3.org/1999/xlink" xmlns:svgjs="http://svgjs.com/svgjs" width="512" height="512" x="0" y="0" viewBox="0 0 24 24" style="enable-background:new 0 0 512 512" xml:space="preserve"><g><path xmlns="http://www.w3.org/2000/svg" d="m18.5 24h-3c-.276 0-.5-.224-.5-.5v-4c0-.276.224-.5.5-.5h3c.276 0 .5.224.5.5v4c0 .276-.224.5-.5.5zm-2.5-1h2v-3h-2z" fill="#e43d30" data-original="#e43d30"></path><path xmlns="http://www.w3.org/2000/svg" d="m18.5 20h-3c-.827 0-1.5-.673-1.5-1.5v-1c0-.276.224-.5.5-.5h5c.276 0 .5.224.5.5v1c0 .827-.673 1.5-1.5 1.5zm-3.5-2v.5c0 .276.225.5.5.5h3c.275 0 .5-.224.5-.5v-.5z" fill="#e43d30" data-original="#e43d30"></path><path xmlns="http://www.w3.org/2000/svg" d="m20.5 18h-7c-1.379 0-2.5-1.122-2.5-2.5v-10c0-.276.224-.5.5-.5h11c.276 0 .5.224.5.5v10c0 1.378-1.121 2.5-2.5 2.5zm-8.5-12v9.5c0 .827.673 1.5 1.5 1.5h7c.827 0 1.5-.673 1.5-1.5v-9.5z" fill="#e43d30" data-original="#e43d30"></path><path xmlns="http://www.w3.org/2000/svg" d="m22.5 24c-.276 0-.5-.224-.5-.5v-9c0-.276.224-.5.5-.5s.5.224.5.5v9c0 .276-.224.5-.5.5z" fill="#e43d30" data-original="#e43d30"></path><path xmlns="http://www.w3.org/2000/svg" d="m11.5 24c-.276 0-.5-.224-.5-.5v-9c0-.276.224-.5.5-.5s.5.224.5.5v9c0 .276-.224.5-.5.5z" fill="#e43d30" data-original="#e43d30"></path><path xmlns="http://www.w3.org/2000/svg" d="m23.5 8h-13c-.276 0-.5-.224-.5-.5s.224-.5.5-.5h13c.276 0 .5.224.5.5s-.224.5-.5.5z" fill="#e43d30" data-original="#e43d30"></path><path xmlns="http://www.w3.org/2000/svg" d="m23.5 6h-13c-.276 0-.5-.224-.5-.5s.224-.5.5-.5h13c.276 0 .5.224.5.5s-.224.5-.5.5z" fill="#e43d30" data-original="#e43d30"></path><path xmlns="http://www.w3.org/2000/svg" d="m21.5 5.5c-.276 0-.5-.224-.5-.5 0-2.206-1.794-4-4-4s-4 1.794-4 4c0 .276-.224.5-.5.5s-.5-.224-.5-.5c0-2.757 2.243-5 5-5s5 2.243 5 5c0 .276-.224.5-.5.5z" fill="#e43d30" data-original="#e43d30"></path><path xmlns="http://www.w3.org/2000/svg" d="m2.5 16c-.276 0-.5-.224-.5-.5v-2c0-2.481 2.019-4.5 4.5-4.5h5c.276 0 .5.224.5.5s-.224.5-.5.5h-5c-1.93 0-3.5 1.57-3.5 3.5v2c0 .276-.224.5-.5.5z" fill="#e43d30" data-original="#e43d30"></path><path xmlns="http://www.w3.org/2000/svg" d="m4.5 16c-.276 0-.5-.224-.5-.5v-2c0-1.378 1.121-2.5 2.5-2.5h5c.276 0 .5.224.5.5s-.224.5-.5.5h-5c-.827 0-1.5.673-1.5 1.5v2c0 .276-.224.5-.5.5z" fill="#e43d30" data-original="#e43d30"></path><path xmlns="http://www.w3.org/2000/svg" d="m5.5 16h-4c-.276 0-.5-.224-.5-.5s.224-.5.5-.5h4c.276 0 .5.224.5.5s-.224.5-.5.5z" fill="#e43d30" data-original="#e43d30"></path><path xmlns="http://www.w3.org/2000/svg" d="m3.5 20c-.827 0-1.5-.673-1.5-1.5s.673-1.5 1.5-1.5 1.5.673 1.5 1.5-.673 1.5-1.5 1.5zm0-2c-.275 0-.5.224-.5.5s.225.5.5.5.5-.224.5-.5-.225-.5-.5-.5z" fill="#e43d30" data-original="#e43d30"></path><path xmlns="http://www.w3.org/2000/svg" d="m3.5 18c-.276 0-.5-.224-.5-.5v-2c0-.276.224-.5.5-.5s.5.224.5.5v2c0 .276-.224.5-.5.5z" fill="#e43d30" data-original="#e43d30"></path><path xmlns="http://www.w3.org/2000/svg" d="m3.5 22c-.276 0-.5-.224-.5-.5v-2c0-.276.224-.5.5-.5s.5.224.5.5v2c0 .276-.224.5-.5.5z" fill="#e43d30" data-original="#e43d30"></path><path xmlns="http://www.w3.org/2000/svg" d="m6.5 24c-.276 0-.5-.224-.5-.5 0-.827-.673-1.5-1.5-1.5h-2c-.827 0-1.5.673-1.5 1.5 0 .276-.224.5-.5.5s-.5-.224-.5-.5c0-1.378 1.121-2.5 2.5-2.5h2c1.379 0 2.5 1.122 2.5 2.5 0 .276-.224.5-.5.5z" fill="#e43d30" data-original="#e43d30"></path></g></svg>