<svg width="133" height="42" viewBox="0 0 133 42" fill="none" xmlns="http://www.w3.org/2000/svg">
<path d="M9.53717 1.88965C6.92418 3.26601 4.25958 4.6377 2.03127 6.94253C-0.0422418 9.04673 -0.581729 12.6346 0.666128 15.3407C2.00733 17.9752 3.74775 20.3891 5.82644 22.4977C4.43282 15.4085 5.7565 8.05728 9.53717 1.88965Z" fill="#7F8282"/>
<path d="M7.36517 23.8695C9.93126 25.4885 12.4973 27.0608 15.4809 27.7467C18.7366 28.4838 21.7484 27.1588 23.6718 24.5554C25.1695 22.0991 26.3396 19.4596 27.1526 16.7031C21.6786 21.4497 14.6263 24.0038 7.36517 23.8695Z" fill="#505050"/>
<path d="M26.6553 4.09682C26.0333 2.96401 25.1413 2.00029 24.0576 1.29015C22.9739 0.58002 21.7315 0.145165 20.4395 0.0237197C17.5178 -0.0874576 14.5949 0.209367 11.7561 0.905524C18.169 2.98173 24.5912 8.26789 27.8422 14.4032C27.9876 10.8713 28.1471 7.09215 26.6553 4.09682Z" fill="#505050"/>
<path d="M132.489 39.215C132.878 38.1509 133.047 37.0193 132.986 35.8884V14.4265H125.597V35.7205C125.6 35.9227 125.563 36.1235 125.489 36.3115C125.414 36.4995 125.302 36.6709 125.161 36.8161C125.019 36.9612 124.85 37.0772 124.663 37.1574C124.477 37.2376 124.276 37.2804 124.073 37.2835H123.913C123.512 37.3104 123.116 37.1784 122.812 36.9162C122.508 36.654 122.32 36.2829 122.29 35.8838V14.4219H114.934V35.8838C114.863 37.0143 115.023 38.1474 115.403 39.215C115.705 39.8536 116.144 40.4183 116.69 40.869C117.235 41.3198 117.874 41.6455 118.561 41.8231C119.221 41.9462 119.892 42.0024 120.564 41.9911H127.314C127.989 42.0037 128.663 41.9506 129.327 41.8325C130.016 41.656 130.657 41.3296 131.203 40.877C131.75 40.4244 132.189 39.8568 132.489 39.215Z" fill="#626262"/>
<path d="M97.6519 14.4121C95.2641 14.4121 93.5987 16.465 93.6175 18.9191V41.9907H101.123V30.5365H104.182V41.9907H111.65V14.4121H97.6519ZM104.173 25.8056H101.128V20.2068C101.128 19.1851 101.513 18.8071 102.446 18.8071H104.173V25.8056Z" fill="#626262"/>
<path d="M82.7949 14.4121V25.8056H79.511V14.4121H71.9723V41.9907H79.5251V30.5365H82.762V41.9907H90.3242V14.4121H82.7949Z" fill="#626262"/>
<path d="M63.5938 19.7496H68.7166V14.4121H56.0222V41.9907H68.726V36.6485H63.5657V30.5365H67.9425V25.8056H63.5657L63.5938 19.7496Z" fill="#626262"/>
<path d="M48.9854 28.0216C50.028 27.8299 50.9715 27.2849 51.6557 26.4794C52.3399 25.6739 52.7225 24.6576 52.7384 23.6033V18.9377C52.6962 16.4416 50.8619 14.4307 48.8635 14.4307H34.5741V41.9905H42.019V30.5364H43.8955C44.8337 30.5364 45.2043 30.9703 45.2043 31.9688V41.9905H52.7384V32.5053C52.7384 30.0699 50.7634 28.2269 48.9854 28.0216ZM45.1715 24.4431C45.1996 25.2736 44.8478 25.7681 44.2333 25.8428H42.0096V18.8443H43.8861C44.8244 18.8443 45.209 19.3109 45.195 20.244L45.1715 24.4431Z" fill="#626262"/>
</svg>
