<svg xmlns="http://www.w3.org/2000/svg" version="1.1" xmlns:xlink="http://www.w3.org/1999/xlink" xmlns:svgjs="http://svgjs.com/svgjs" width="512" height="512" x="0" y="0" viewBox="0 0 64 64" style="enable-background:new 0 0 512 512" xml:space="preserve"><g><g xmlns="http://www.w3.org/2000/svg"><path d="m32 53c11.58 0 21-9.42 21-21s-9.42-21-21-21-21 9.42-21 21 9.42 21 21 21zm0-40c10.477 0 19 8.523 19 19s-8.523 19-19 19-19-8.523-19-19 8.523-19 19-19z" fill="#e43d30" data-original="#e43d30"></path><path d="m32 8c.552 0 1-.448 1-1v-6c0-.552-.448-1-1-1s-1 .448-1 1v6c0 .552.448 1 1 1z" fill="#e43d30" data-original="#e43d30"></path><path d="m31 57v6c0 .552.448 1 1 1s1-.448 1-1v-6c0-.552-.448-1-1-1s-1 .448-1 1z" fill="#e43d30" data-original="#e43d30"></path><path d="m63 31h-6c-.552 0-1 .448-1 1s.448 1 1 1h6c.552 0 1-.448 1-1s-.448-1-1-1z" fill="#e43d30" data-original="#e43d30"></path><path d="m1 33h6c.552 0 1-.448 1-1s-.448-1-1-1h-6c-.552 0-1 .448-1 1s.448 1 1 1z" fill="#e43d30" data-original="#e43d30"></path><path d="m50.385 48.971c-.391-.391-1.023-.391-1.414 0s-.391 1.023 0 1.414l4.243 4.243c.195.195.451.293.707.293s.512-.098.707-.293c.391-.391.391-1.023 0-1.414z" fill="#e43d30" data-original="#e43d30"></path><path d="m13.615 15.029c.195.195.451.293.707.293s.512-.098.707-.293c.391-.391.391-1.023 0-1.414l-4.243-4.243c-.391-.391-1.023-.391-1.414 0s-.391 1.023 0 1.414z" fill="#e43d30" data-original="#e43d30"></path><path d="m10.08 54.92c.256 0 .512-.098.707-.293l4.243-4.243c.391-.391.391-1.023 0-1.414s-1.023-.391-1.414 0l-4.243 4.243c-.391.391-.391 1.023 0 1.414.195.196.451.293.707.293z" fill="#e43d30" data-original="#e43d30"></path><path d="m49.678 15.322c.256 0 .512-.098.707-.293l4.243-4.243c.391-.391.391-1.023 0-1.414s-1.023-.391-1.414 0l-4.243 4.243c-.391.391-.391 1.023 0 1.414.195.196.451.293.707.293z" fill="#e43d30" data-original="#e43d30"></path></g></g></svg>