<svg width="151" height="32" viewBox="0 0 151 32" fill="none" xmlns="http://www.w3.org/2000/svg">
<g clip-path="url(#clip0_201_346)">
<path d="M29.1308 21.7059V7.54785H23.821V21.7059H29.1308Z" fill="#626262"/>
<path fill-rule="evenodd" clip-rule="evenodd" d="M23.43 7.15723H29.5218V22.0973H23.43V7.15723ZM24.2121 7.93933V21.3152H28.7397V7.93933H24.2121Z" fill="#626262"/>
<path d="M90.1927 7.54785H83.0282L80.8097 13.3989C80.6279 13.8684 80.5915 14.8074 80.5915 14.8074C80.5915 14.8074 80.5188 13.8684 80.3369 13.3989L78.1549 7.54785H71.0267V21.7059H75.6091V13.2544C75.6091 13.2544 75.6091 13.76 75.7909 14.1934L79.0277 21.6697H82.1553L85.3921 14.0129C85.5739 13.5433 85.5739 13.0738 85.5739 13.0738V21.6697H90.1927V7.54785Z" fill="#626262"/>
<path fill-rule="evenodd" clip-rule="evenodd" d="M70.6357 7.15723H78.4264L80.5744 12.9169L82.7582 7.15723H90.5837V22.0612H85.1829V15.5125L82.4146 22.0612H78.7709L76.0001 15.6614V22.0973H70.6357V7.15723ZM75.218 13.2551L75.6091 13.2548C76.0001 13.2548 76.0001 13.2548 76.0001 13.2547L76.0002 13.2561L76.0004 13.2679C76.0007 13.2792 76.0012 13.297 76.0025 13.3201C76.0049 13.3666 76.0098 13.4337 76.0198 13.513C76.0402 13.6748 76.0794 13.8699 76.1507 14.0407L79.2845 21.2791H80.7006L80.2016 14.8381L80.2015 14.8363L80.2009 14.8294L80.1985 14.8009C80.1963 14.7758 80.1929 14.739 80.1883 14.6932C80.179 14.6014 80.1647 14.4744 80.1451 14.3337C80.1043 14.0408 80.0452 13.7289 79.9723 13.5405L79.9705 13.5359L77.8833 7.93933H71.4178V21.3152H75.218L75.218 13.2551ZM80.9823 14.823L80.9823 14.8214L80.9826 14.8146L80.984 14.7864C80.9853 14.7615 80.9873 14.7249 80.9903 14.6794C80.9962 14.588 81.006 14.4617 81.0212 14.3218C81.0529 14.0291 81.1038 13.7228 81.1744 13.5405L81.1754 13.5379L83.2981 7.93933H89.8016V21.2791H85.965L85.965 13.0749L85.5739 13.0742C85.1829 13.0742 85.1829 13.0742 85.1829 13.0741L85.1827 13.0852C85.1824 13.0954 85.1818 13.1117 85.1806 13.1333C85.1783 13.1766 85.1734 13.2404 85.1634 13.3176C85.1434 13.4727 85.1041 13.6723 85.0295 13.8668L81.8961 21.2791H80.7323" fill="#626262"/>
<path d="M129.797 7.54785H124.779V15.3131C124.779 15.3131 124.779 14.8074 124.451 14.4463L118.487 7.54785H113.214V21.7059H118.487V13.9045C118.487 13.9045 118.487 14.4102 118.814 14.7713L124.56 21.6697H129.797V7.54785Z" fill="#626262"/>
<path fill-rule="evenodd" clip-rule="evenodd" d="M112.823 7.15723H118.666L124.388 13.7751V7.15723H130.189V22.0612H124.377L118.878 15.4593V22.0973H112.823V7.15723ZM118.096 13.9052L118.578 13.9049C118.878 13.9049 118.878 13.9048 118.878 13.9047L118.878 13.9033L118.878 13.9102C118.879 13.9185 118.88 13.9329 118.881 13.9521C118.885 13.9907 118.893 14.0471 118.908 14.1122C118.94 14.2465 119 14.3943 119.104 14.5092L119.11 14.5152L124.744 21.2791H129.406V7.93933H125.17L125.17 15.3124L125.17 15.3135H124.792C124.787 15.3135 124.783 15.3135 124.779 15.3135C124.773 15.3135 124.767 15.3135 124.761 15.3135C124.388 15.3135 124.388 15.3136 124.388 15.3138L124.388 15.3151L124.387 15.3083C124.387 15.2999 124.386 15.2856 124.384 15.2664C124.381 15.2277 124.373 15.1714 124.357 15.1063C124.325 14.9719 124.266 14.8241 124.162 14.7093L124.155 14.7025L118.308 7.93933H113.605V21.3152H118.096L118.096 13.9052ZM124.388 15.3151C124.388 15.3155 124.388 15.3156 124.388 15.3151Z" fill="#626262"/>
<path d="M111.541 21.7059L104.34 7.54785H98.7391L91.5383 21.7059H96.3752H97.139L98.4846 19.0693H104.631L105.976 21.6697H106.195H111.104H111.541V21.7059ZM99.7938 15.4937C99.7938 15.4937 101.067 12.9655 101.285 12.5321C101.503 12.0986 101.503 11.593 101.503 11.593C101.503 11.593 101.503 12.0986 101.721 12.5321L103.249 15.4937H99.7938Z" fill="#626262"/>
<path fill-rule="evenodd" clip-rule="evenodd" d="M98.4993 7.15723H104.58L111.762 21.2791H111.932V23.3377L111.282 22.0612H105.738L104.393 19.4608H98.724L97.3784 22.0973H90.9006L98.4993 7.15723ZM110.885 21.2791L104.1 7.93933H98.979L92.1759 21.3152H96.8995L98.2451 18.6787H104.869L106.214 21.2791H110.885ZM101.112 11.5936L101.112 11.6046C101.111 11.6153 101.111 11.6323 101.109 11.6546C101.107 11.6995 101.101 11.7648 101.089 11.842C101.065 12.0002 101.019 12.1905 100.936 12.3566L99.4447 15.3178L99.1591 15.8852H103.89L102.07 12.355C101.987 12.1893 101.941 11.9997 101.917 11.842C101.905 11.7648 101.9 11.6995 101.897 11.6546C101.895 11.6323 101.895 11.6153 101.894 11.6046L101.894 11.5937C101.894 11.5938 101.894 11.5934 101.589 11.5934H101.417C101.112 11.5934 101.112 11.5937 101.112 11.5936ZM100.428 15.1031H102.607L101.505 12.9655L100.428 15.1031Z" fill="#626262"/>
<path d="M38.9501 17.9135V15.9632H46.9147V12.7849H38.9501V11.0151H48.624V7.54785H33.9313V21.7059H49.0241V17.9135H38.9501Z" fill="#626262"/>
<path fill-rule="evenodd" clip-rule="evenodd" d="M33.5403 7.15723H49.0151V11.4066H39.3412V12.3942H47.3058V16.3547H39.3412V17.5229H49.4151V22.0973H33.5403V7.15723ZM34.3224 7.93933V21.3152H48.633V18.305H38.5591V15.5726H46.5237V13.1763H38.5591V10.6245H48.233V7.93933H34.3224Z" fill="#626262"/>
<path d="M0.254578 7.54785L7.89186 21.742H14.0381L21.5662 7.54785H15.5655L11.3105 16.1438C11.0922 16.5772 11.0922 17.0828 11.0922 17.0828C11.0922 17.0828 11.0922 16.5772 10.874 16.1438L6.61898 7.54785H0.254578Z" fill="#626262"/>
<path fill-rule="evenodd" clip-rule="evenodd" d="M-0.399902 7.15723H6.86174L11.0922 15.7036L15.3227 7.15723H22.2163L14.2733 22.1335H7.6582L-0.399902 7.15723ZM10.7012 17.083L10.7009 17.072C10.7006 17.0614 10.7 17.0444 10.6985 17.022C10.6957 16.9772 10.69 16.9119 10.6783 16.8347C10.6544 16.6765 10.6084 16.4862 10.5247 16.3201L10.5236 16.3177L6.37621 7.93933H0.909039L8.12551 21.3514H13.8028L20.9162 7.93933H15.8083L11.6609 16.3177L11.6597 16.3201C11.5761 16.4862 11.5301 16.6765 11.5062 16.8347C11.4945 16.9119 11.4887 16.9772 11.4859 17.022C11.4845 17.0444 11.4839 17.0614 11.4835 17.072L11.4833 17.083C11.4833 17.0829 11.4833 17.0833 11.0922 17.0833C10.7012 17.0833 10.7012 17.0829 10.7012 17.083Z" fill="#626262"/>
<path d="M67.3535 0.143555H55.643C55.643 0.143555 51.0607 0.251907 51.0607 4.76658C51.0607 9.3896 55.643 9.28125 55.643 9.28125H62.5893C62.5893 9.28125 63.4985 9.28125 63.4985 10.2203C63.4985 11.051 62.5893 11.051 62.5893 11.051H51.3516V14.9517H62.9894C62.9894 14.9517 67.9354 15.1323 67.9354 10.0758C67.9354 5.70563 62.9894 5.59728 62.9894 5.59728H56.4068C56.4068 5.59728 55.3885 5.59728 55.3885 4.76658C55.3885 3.972 56.4068 3.972 56.4068 3.972H67.3535V0.143555Z" fill="#626262"/>
<path fill-rule="evenodd" clip-rule="evenodd" d="M55.643 -0.24707H67.7446V4.36347L56.4085 4.36347L56.4055 4.36353C56.4016 4.36363 56.3946 4.36387 56.3848 4.36442C56.3651 4.36552 56.335 4.36783 56.2981 4.37262C56.2223 4.38247 56.1283 4.40152 56.0398 4.43605C55.9501 4.47103 55.8853 4.5144 55.8449 4.56165C55.8108 4.60152 55.7795 4.66009 55.7795 4.767C55.7795 4.88766 55.814 4.95524 55.8504 4.9998C55.8921 5.05091 55.9573 5.09589 56.0453 5.13178C56.1327 5.16741 56.2255 5.18707 56.3003 5.19724C56.3367 5.20219 56.3664 5.20457 56.3858 5.20569C56.3954 5.20625 56.4023 5.2065 56.406 5.2066L56.4071 5.20665L56.4086 5.20666M55.643 0.14398L55.6338 -0.246961L55.643 -0.24707M55.6493 0.53503L55.6453 0.535173C55.6388 0.535432 55.6281 0.535907 55.6136 0.536726C55.5846 0.538366 55.5402 0.541381 55.4827 0.546786C55.3676 0.557609 55.2007 0.577944 54.9992 0.615779C54.5946 0.691783 54.0607 0.836627 53.5312 1.10997C53.0031 1.38265 52.4869 1.77911 52.1021 2.3568C51.7192 2.93171 51.4517 3.70805 51.4517 4.767C51.4517 5.85515 51.7203 6.63715 52.1013 7.20481C52.4839 7.77467 52.9965 8.15324 53.5213 8.40554C54.0478 8.65869 54.5794 8.78103 54.983 8.83934C55.1838 8.86836 55.3503 8.88116 55.4651 8.88671C55.5224 8.88949 55.5666 8.89045 55.5955 8.89074C55.6099 8.89088 55.6205 8.89086 55.627 8.89081L55.6336 8.89074M55.6493 0.53503H66.9625V3.58137H56.4068V3.97242C56.4068 3.58137 56.4069 3.58137 56.4068 3.58137L56.4054 3.58137L56.4036 3.58138L56.3989 3.58143L56.3852 3.5817C56.3741 3.58199 56.3593 3.58252 56.3413 3.58353C56.3053 3.58553 56.2558 3.58943 56.1972 3.59705C56.0821 3.61203 55.9215 3.64265 55.7555 3.70744C55.5906 3.77178 55.4008 3.8774 55.2503 4.05362C55.0934 4.23723 54.9974 4.47663 54.9974 4.767C54.9974 5.0617 55.0903 5.30563 55.2448 5.49471C55.3939 5.67723 55.5833 5.788 55.7499 5.85595C55.9171 5.92416 56.0789 5.95642 56.195 5.97221C56.2541 5.98024 56.3039 5.98435 56.3403 5.98647C56.3585 5.98753 56.3735 5.9881 56.3847 5.98841L56.3987 5.9887L56.4035 5.98874L56.4053 5.98875L56.4064 5.98875C56.4066 5.98875 56.4068 5.98875 56.4068 5.5977L56.4064 5.98875H62.9837M63.685 9.46577C63.8158 9.66844 63.8896 9.92008 63.8896 10.2207C63.8896 10.5045 63.8103 10.7425 63.6724 10.9315C63.5376 11.1162 63.3635 11.2315 63.2064 11.3033C63.05 11.3747 62.8988 11.4085 62.7903 11.425C62.735 11.4335 62.6882 11.4378 62.6539 11.44C62.6366 11.4412 62.6223 11.4418 62.6114 11.4421L62.5977 11.4424L62.5928 11.4425L62.5909 11.4425L62.5897 11.4425C62.5895 11.4425 62.5893 11.4425 62.5893 11.0514L62.5897 11.4425H51.7427V14.5611H62.9965L63.003 14.5613M63.685 9.46577C63.5554 9.26493 63.3844 9.13475 63.2234 9.0516ZM63.2234 9.0516C63.0642 8.96939 62.9095 8.9302 62.7977 8.91097ZM62.7977 8.91097C62.741 8.9012 62.6928 8.89615 62.6572 8.89352ZM62.6572 8.89352C62.6393 8.8922 62.6244 8.89148 62.613 8.89109ZM62.613 8.89109L62.5984 8.89071ZM62.5984 8.89071L62.5932 8.89064ZM62.5932 8.89064L62.5911 8.89063ZM62.5911 8.89063L62.5897 8.89063ZM62.5897 8.89063C62.5895 8.89063 62.5893 8.89063 62.5893 9.28168Z" fill="#626262"/>
<path d="M150.854 7.54785H145.836V15.3131C145.836 15.3131 145.836 14.8074 145.508 14.4463L139.544 7.54785H134.271V21.7059H139.544V13.9406C139.544 13.9406 139.544 14.4463 139.871 14.8074L145.618 21.7059H150.854V7.54785Z" fill="#626262"/>
<path fill-rule="evenodd" clip-rule="evenodd" d="M133.88 7.15723H139.723L145.445 13.7751V7.15723H151.246V22.0973H145.434L139.935 15.4954V22.0973H133.88V7.15723ZM139.153 13.9413L139.527 13.9411C139.532 13.9411 139.538 13.9411 139.544 13.9411C139.55 13.9411 139.556 13.9411 139.562 13.9411C139.935 13.9411 139.935 13.9409 139.935 13.9408L139.935 13.9394L139.935 13.9463C139.936 13.9546 139.937 13.969 139.938 13.9882C139.942 14.0269 139.95 14.0832 139.965 14.1483C139.997 14.2826 140.057 14.4304 140.161 14.5453L140.167 14.5513L145.801 21.3152H150.463V7.93933H146.227L146.227 15.313L145.849 15.3135C145.845 15.3135 145.84 15.3135 145.836 15.3135C145.83 15.3135 145.824 15.3135 145.818 15.3135C145.445 15.3135 145.445 15.3136 145.445 15.3138L145.445 15.3151L145.444 15.3083C145.444 15.2999 145.443 15.2856 145.441 15.2664C145.438 15.2277 145.43 15.1714 145.414 15.1063C145.382 14.9719 145.323 14.8241 145.219 14.7093L145.213 14.7025L139.365 7.93933H134.662V21.3152H139.153V13.9413ZM145.445 15.3151C145.445 15.3155 145.445 15.3156 145.445 15.3151Z" fill="#626262"/>
<path d="M67.3535 17.083H55.643C55.643 17.083 51.0607 17.1914 51.0607 21.706C51.0607 26.3291 55.643 26.2207 55.643 26.2207H62.5893C62.5893 26.2207 63.4985 26.2207 63.4985 27.1598C63.4985 27.9905 62.5893 27.9905 62.5893 27.9905H51.3516V31.8911H62.9894C62.9894 31.8911 67.9354 32.0717 67.9354 27.0153C67.9354 22.6451 62.9894 22.5367 62.9894 22.5367H56.4068C56.4068 22.5367 55.3885 22.5367 55.3885 21.706C55.3885 20.9114 56.4068 20.9115 56.4068 20.9115H67.3535V17.083Z" fill="#626262"/>
<path fill-rule="evenodd" clip-rule="evenodd" d="M55.643 16.6914H67.7446V21.3019L56.4085 21.3019L56.4055 21.302C56.4016 21.3021 56.3946 21.3023 56.3848 21.3029C56.3651 21.304 56.335 21.3063 56.2981 21.3111C56.2223 21.321 56.1283 21.34 56.0398 21.3745C55.9501 21.4095 55.8853 21.4529 55.8449 21.5001C55.8108 21.54 55.7795 21.5986 55.7795 21.7055C55.7795 21.8261 55.814 21.8937 55.8504 21.9383C55.8921 21.9894 55.9573 22.0344 56.0453 22.0703C56.1327 22.1059 56.2255 22.1255 56.3003 22.1357C56.3367 22.1407 56.3664 22.143 56.3858 22.1442C56.3954 22.1447 56.4023 22.145 56.406 22.1451L56.4071 22.1451L56.4086 22.1451M55.643 17.0825L55.6338 16.6915L55.643 16.6914M55.6493 17.4735L55.6453 17.4736C55.6388 17.4739 55.6281 17.4744 55.6136 17.4752C55.5846 17.4768 55.5402 17.4799 55.4827 17.4853C55.3676 17.4961 55.2007 17.5164 54.9992 17.5543C54.5946 17.6303 54.0607 17.7751 53.5312 18.0484C53.0031 18.3211 52.4869 18.7176 52.1021 19.2953C51.7192 19.8702 51.4517 20.6465 51.4517 21.7055C51.4517 22.7936 51.7203 23.5756 52.1013 24.1433C52.4839 24.7131 52.9965 25.0917 53.5213 25.344C54.0478 25.5972 54.5794 25.7195 54.983 25.7778C55.1838 25.8068 55.3503 25.8196 55.4651 25.8252C55.5224 25.828 55.5666 25.8289 55.5955 25.8292C55.6099 25.8294 55.6205 25.8293 55.627 25.8293L55.6336 25.8292M55.6493 17.4735H66.9625V20.5198H56.4068V20.9073C56.4068 20.5198 56.4069 20.5198 56.4068 20.5198L56.4054 20.5199L56.4036 20.5199L56.3989 20.5199L56.3852 20.5202C56.3741 20.5205 56.3593 20.521 56.3413 20.522C56.3053 20.524 56.2558 20.5279 56.1972 20.5355C56.0821 20.5505 55.9215 20.5811 55.7555 20.6459C55.5906 20.7103 55.4008 20.8159 55.2503 20.9921C55.0934 21.1757 54.9974 21.4151 54.9974 21.7055C54.9974 22.0002 55.0903 22.2441 55.2448 22.4332C55.3939 22.6157 55.5833 22.7265 55.7499 22.7944C55.9171 22.8626 56.0789 22.8949 56.195 22.9107C56.2541 22.9187 56.3039 22.9228 56.3403 22.9249C56.3585 22.926 56.3735 22.9266 56.3847 22.9269L56.3987 22.9272L56.4035 22.9272L56.4053 22.9272L56.4064 22.9272C56.4066 22.9272 56.4068 22.9272 56.4068 22.5362L56.4064 22.9272H62.9837M63.685 26.4042C63.8158 26.6069 63.8896 26.8586 63.8896 27.1592C63.8896 27.443 63.8103 27.6809 63.6724 27.87C63.5376 28.0547 63.3635 28.17 63.2064 28.2418C63.05 28.3132 62.8988 28.347 62.7903 28.3635C62.735 28.3719 62.6882 28.3763 62.6539 28.3785C62.6366 28.3796 62.6223 28.3802 62.6114 28.3806L62.5977 28.3809L62.5928 28.3809L62.5909 28.381L62.5897 28.381C62.5895 28.381 62.5893 28.381 62.5893 27.9899L62.5897 28.381H51.7427V31.4995H62.9965L63.003 31.4998M63.685 26.4042C63.5554 26.2034 63.3844 26.0732 63.2234 25.9901ZM63.2234 25.9901C63.0642 25.9079 62.9095 25.8687 62.7977 25.8494ZM62.7977 25.8494C62.741 25.8397 62.6928 25.8346 62.6572 25.832ZM62.6572 25.832C62.6393 25.8307 62.6244 25.83 62.613 25.8296ZM62.613 25.8296L62.5984 25.8292ZM62.5984 25.8292L62.5932 25.8291ZM62.5932 25.8291L62.5911 25.8291ZM62.5911 25.8291L62.5897 25.8291ZM62.5897 25.8291C62.5895 25.8291 62.5893 25.8291 62.5893 26.2202Z" fill="#626262"/>
</g>
<defs>
<clipPath id="clip0_201_346">
<rect width="151" height="32" fill="white"/>
</clipPath>
</defs>
</svg>
